<svg width="24" height="24" viewBox="0 0 24 24" fill="none" xmlns="http://www.w3.org/2000/svg">
                        <rect width="24" height="24" fill="white" />
                        <path d="M15.7931 7.27586H21.1035V5.75864H15.7931V7.27586Z" fill="#2D8BFB" />
                        <path
                            d="M1 5.00003H7.41034C7.41034 5.00003 10.7483 4.96209 11.2414 7.69314C11.7345 10.4242 9.34483 11.1069 9.34483 11.1069C9.34483 11.1069 12.3793 11.7138 12 14.938C11.6207 18.1621 7.6 17.8966 7.6 17.8966H1V5.00003Z"
                            fill="#2D8BFB" />
                        <path
                            d="M16.1724 14.1035H23C23 10.7276 20.7241 8.79312 18.069 8.79312C15.3 8.79312 13.1379 11.1828 13.1379 13.3448C13.1379 16.4552 15.3 18.6552 18.069 18.6552C21.369 18.6552 22.5827 15.8862 22.6207 15.6207H20.3448C20.3069 15.7724 19.9655 16.7586 18.4482 16.7586C16.931 16.7586 16.1724 15.6207 16.1724 14.1035Z"
                            fill="#2D8BFB" />
                        <path
                            d="M7.44829 9.93101H3.65518V6.89651H7.44829C8.28279 6.89651 8.96552 7.57929 8.96552 8.41374C8.96552 9.24828 8.28279 9.93101 7.44829 9.93101Z"
                            fill="white" />
                        <path
                            d="M7.06896 16H3.65518V12.2069H7.06896C8.13102 12.2069 8.96552 13.0414 8.96552 14.1035C8.96552 15.1656 8.13106 16 7.06896 16Z"
                            fill="white" />
                        <path
                            d="M18.2586 10.3104C16.931 10.3104 16.1724 11.2587 16.1724 12.2069V12.5863H20.3448V12.2069C20.3448 11.2587 19.5862 10.3104 18.2586 10.3104Z"
                            fill="white" />
                    </svg>