<svg width="24" height="24" viewBox="0 0 24 24" fill="none" xmlns="http://www.w3.org/2000/svg">
                        <path
                            d="M12 0C5.37933 0 0 5.37933 0 12C0 18.6207 5.37933 24 12 24C18.6207 24 24 18.6207 24 12C24 5.37933 18.6207 0 12 0Z"
                            fill="#D75182" />
                        <path
                            d="M22.1379 11.8759C20.7724 11.4621 19.3241 11.2552 17.8345 11.2552C16.9241 11.2552 16.0552 11.338 15.1862 11.4621C14.8966 10.8 14.6069 10.138 14.3172 9.55866C18.4138 7.82072 19.9034 5.62762 19.9034 5.62762C21.269 7.32412 22.0966 9.51722 22.1379 11.8759Z"
                            fill="white" />
                        <path
                            d="M12 1.86206C14.5655 1.86206 16.9242 2.81376 18.7035 4.42758C17.338 6 15.4345 7.11722 13.4483 7.90345C11.5035 4.30345 9.64142 2.15175 9.64142 2.15175C10.3862 1.98619 11.1724 1.86206 12 1.86206Z"
                            fill="white" />
                        <path
                            d="M7.61383 2.85516C7.61383 2.85516 9.39316 5.13104 11.2966 8.60687C6.66213 9.93099 2.06903 9.84826 2.06903 9.84826C2.77244 6.78619 4.84141 4.22068 7.61383 2.85516Z"
                            fill="white" />
                        <path
                            d="M1.86209 12C1.86209 11.9172 1.86209 11.8345 1.86209 11.7517C6.20694 11.7517 9.60003 11.1724 12.2069 10.3448C12.4552 10.8827 12.7449 11.462 12.9931 11.9999C9.39312 13.1586 6.37245 15.5999 4.469 18.7861C2.85518 16.9655 1.86209 14.6069 1.86209 12Z"
                            fill="white" />
                        <path
                            d="M12 22.0966C9.68279 22.0966 7.57243 21.3104 5.87589 20.0276C7.57243 17.0069 10.3862 14.731 13.7379 13.6966C14.6897 16.0552 15.5173 18.6621 15.8897 21.3517C14.6897 21.8483 13.3655 22.0966 12 22.0966Z"
                            fill="white" />
                        <path
                            d="M17.6276 20.4C17.2966 17.7931 16.6345 15.3931 15.8483 13.2C16.5103 13.1172 17.131 13.0759 17.8345 13.0759C19.2827 13.0759 20.6896 13.2828 22.0138 13.7379C21.4759 16.5104 19.8621 18.9104 17.6276 20.4Z"
                            fill="white" />
                    </svg>