<svg width="201" height="82" viewBox="0 0 201 82" fill="none" xmlns="http://www.w3.org/2000/svg">
                    <path
                        d="M44.6594 69.8333C44.1442 69.9713 43.5519 69.9864 42.8826 69.8787C42.2393 69.786 41.6529 69.5345 41.1234 69.1243C40.62 68.7291 40.2922 68.1654 40.1402 67.4331C40.0448 66.9949 39.9701 66.5511 39.916 66.1018C39.888 65.6676 39.9175 65.1185 40.0047 64.4547C40.1125 63.7853 40.3175 62.9022 40.6199 61.8052C40.9374 60.6821 41.4022 59.2434 42.0144 57.4892C42.6471 55.7295 43.4587 53.5243 44.4491 50.8736C44.9299 49.6184 45.2338 48.6094 45.3607 47.8466C45.4876 47.0837 45.4986 46.5065 45.3937 46.115C45.3053 45.7853 45.1491 45.5732 44.925 45.4786C44.7009 45.3841 44.4446 45.3755 44.1561 45.4528C43.744 45.5632 43.2825 45.8193 42.7718 46.2212C42.2817 46.6176 41.8315 47.0805 41.4213 47.6101C40.646 48.5908 39.8778 49.6801 39.1165 50.878C38.3497 52.0552 37.6222 53.2551 36.9338 54.4775C36.2454 55.7 35.6105 56.8751 35.0292 58.0026C34.6419 59.2769 34.2709 60.4475 33.9162 61.5143C33.556 62.5605 33.2945 63.3153 33.1315 63.7786C33.0877 63.9449 32.9814 64.0838 32.8125 64.1953C32.6642 64.3013 32.5076 64.3764 32.3428 64.4206C32.0543 64.4979 31.7774 64.4948 31.5121 64.4113C31.2412 64.3072 31.1373 64.1252 31.2002 63.8654C31.2002 63.8654 31.2658 63.6159 31.3972 63.1169C31.5285 62.6179 31.6933 61.9554 31.8915 61.1292C32.1104 60.2976 32.3306 59.3883 32.552 58.4013C32.7941 57.4089 33.0183 56.4322 33.2246 55.4714C33.4255 54.49 33.5838 53.5973 33.6996 52.7932C33.8361 51.9836 33.9006 51.359 33.8932 50.9193C33.8733 50.3504 33.8026 49.8392 33.6811 49.3859C33.5597 48.9326 33.3806 48.594 33.144 48.3703C32.9018 48.126 32.5747 48.0591 32.1626 48.1695C31.8947 48.2413 31.5768 48.4148 31.2088 48.6901C30.8408 48.9654 30.4256 49.3527 29.9631 49.8521C29.1808 50.7243 28.3274 51.8253 27.4028 53.1553C26.4933 54.4591 25.5653 55.9004 24.619 57.4791C23.6878 59.0317 22.7676 60.6255 21.8585 62.2605C20.9644 63.8694 20.1445 65.4253 19.3988 66.9282C19.3535 67.0066 19.2897 67.0568 19.2072 67.0789C18.6947 68.2984 18.2841 69.1152 17.9754 69.5292C17.6873 69.9377 17.5185 70.0492 17.4688 69.8637C17.3583 69.4516 17.6793 68.3828 18.4317 66.6573C19.0251 65.3277 19.6638 63.9197 20.3478 62.4334C21.0468 60.921 21.6765 59.4381 22.2368 57.9849C22.8177 56.5262 23.2352 55.1996 23.4894 54.0051C23.7436 52.8106 23.774 51.8528 23.5808 51.1315C23.3213 50.163 22.74 49.601 21.837 49.4454C20.9545 49.2843 19.9054 49.3667 18.6896 49.6924C17.7211 49.9519 16.7054 50.3235 15.6423 50.8071C14.5943 51.2646 13.5602 51.7736 12.5398 52.3341C11.5345 52.8685 10.6172 53.4014 9.78783 53.9329C8.95293 54.4437 8.28214 54.8664 7.77546 55.2009C6.9516 55.753 6.20538 56.3063 5.53681 56.8609C4.86824 57.4155 4.35697 57.939 4.00302 58.4314C3.66415 58.8976 3.54441 59.3162 3.64379 59.6871C3.73766 60.0375 4.06574 60.314 4.62803 60.5167C4.67476 60.5262 4.70365 60.5516 4.71469 60.5928C4.72574 60.634 4.67974 60.6685 4.57671 60.6961C4.47368 60.7237 4.36236 60.7204 4.24277 60.6862C3.53475 60.4342 3.07583 59.9166 2.86602 59.1336C2.71142 58.5566 2.74429 57.8963 2.96465 57.1526C3.18501 56.4088 3.64658 55.6999 4.34936 55.0257C5.24017 54.1465 6.27117 53.296 7.44238 52.4742C8.60807 51.6318 9.83706 50.8608 11.1293 50.1611C12.4161 49.4409 13.7071 48.8189 15.0024 48.2952C16.3127 47.7453 17.5448 47.3157 18.6988 47.0065C20.2237 46.598 21.4603 46.4323 22.4085 46.5094C23.3774 46.5811 24.1191 46.8351 24.6336 47.2715C25.1481 47.7079 25.4937 48.2558 25.6703 48.9152C25.9078 49.8013 25.8911 50.8107 25.6204 51.9433C25.3702 53.0705 25.0307 54.1111 24.6017 55.0654C24.2125 55.9206 23.7053 56.9951 23.0802 58.289C22.4757 59.5773 21.8843 60.8732 21.306 62.1767C22.2096 60.521 23.1421 58.8908 24.1035 57.286C25.0649 55.6811 26.0154 54.2007 26.9551 52.8446C27.8948 51.4885 28.7633 50.3613 29.5607 49.463C30.4294 48.5014 31.2166 47.7714 31.9224 47.2731C32.6432 46.7487 33.2818 46.4119 33.8382 46.2628C34.6212 46.053 35.2411 46.1409 35.6978 46.5265C36.1751 46.9066 36.5076 47.447 36.6953 48.1476C36.8941 48.8894 36.9343 49.74 36.8159 50.6993C36.7383 51.3164 36.6107 52.0353 36.433 52.8559C36.2498 53.6559 36.0337 54.4979 35.7847 55.3818C36.558 53.9819 37.3932 52.5655 38.2902 51.1325C39.2079 49.694 40.1202 48.4004 41.0271 47.2519C41.823 46.2656 42.7035 45.3892 43.6686 44.6226C44.6338 43.8561 45.4976 43.3706 46.26 43.1663C46.7133 43.0449 47.1016 43.0513 47.4247 43.1855C47.7422 43.2992 47.959 43.5724 48.075 44.0052C48.1743 44.3761 48.1777 44.8832 48.085 45.5264C47.9923 46.1696 47.7858 46.9649 47.4654 47.9121C46.1972 51.5868 45.2047 54.7239 44.4877 57.3234C43.7859 59.8968 43.3246 62.0081 43.1039 63.6574C42.8833 65.3067 42.8505 66.5854 43.0055 67.4936C43.0125 67.6021 43.0298 67.7079 43.0574 67.811C43.085 67.914 43.1126 68.017 43.1402 68.1201C43.2948 68.697 43.4952 69.074 43.7414 69.251C44.0137 69.4431 44.2735 69.506 44.5208 69.4397C44.8299 69.3569 45.088 69.1663 45.2952 68.8678C45.3665 68.8045 45.4125 68.7701 45.4331 68.7646C45.5362 68.737 45.6324 68.7664 45.7218 68.8529C45.8113 68.9393 45.8183 69.0479 45.7428 69.1785C45.5151 69.4825 45.1539 69.7007 44.6594 69.8333ZM47.5629 70.3804C46.5738 70.6454 45.6257 70.7338 44.7186 70.6456C43.7965 70.5835 42.9716 70.3076 42.2441 69.8178C41.5165 69.3281 40.9165 68.5723 40.4439 67.5505C40.3585 67.3967 40.3777 67.3032 40.5013 67.2701C40.5837 67.248 40.6649 67.3036 40.7447 67.4368C41.2806 68.53 42.0985 69.3158 43.1984 69.794C44.2778 70.2778 45.3944 70.3651 46.5484 70.0559C47.6199 69.7688 48.6244 69.1904 49.562 68.3208C50.505 67.4718 51.3592 66.4147 52.1245 65.1495C52.8953 63.905 53.5684 62.543 54.1438 61.0637C54.7589 59.4854 55.2675 57.8804 55.6696 56.2487C56.0923 54.6115 56.4813 52.9723 56.8366 51.3311C56.6736 51.7944 56.5031 52.2708 56.325 52.7602C56.147 53.2496 55.9606 53.7082 55.766 54.1358C55.3974 54.9855 54.9518 55.8779 54.4294 56.8129C53.922 57.7219 53.387 58.5278 52.8244 59.2307C52.2563 59.913 51.6838 60.3314 51.1068 60.486C50.6535 60.6075 50.2391 60.586 49.8638 60.4216C49.509 60.2516 49.2626 59.909 49.1246 59.3938C49.0031 58.9405 48.9751 58.5063 49.0406 58.0912C49.1005 57.6555 49.1894 57.2452 49.3071 56.8603C49.5028 56.1894 49.7679 55.489 50.1023 54.7589C50.4367 54.0288 50.7342 53.408 50.9947 52.8964C51.1496 52.5678 51.2049 52.3211 51.1608 52.1562C51.1055 51.9502 50.9646 51.8775 50.7379 51.9382C50.47 52.01 50.1742 52.266 49.8504 52.7061C49.4497 53.1889 49.0581 53.7466 48.6754 54.3792C48.2873 54.9912 47.9245 55.5743 47.5871 56.1285C47.2497 56.6827 46.9699 57.1221 46.7477 57.4467C46.631 57.5884 46.5418 57.6675 46.48 57.6841C46.3975 57.7062 46.3453 57.676 46.3232 57.5936C46.2901 57.4699 46.3291 57.327 46.4402 57.1647C46.7584 56.7039 47.0807 56.1759 47.4071 55.5804C47.754 54.9795 48.0935 54.3916 48.4253 53.8168C48.7723 53.2159 49.1029 52.7187 49.4171 52.3253C49.6599 51.9952 49.9324 51.7345 50.2345 51.5431C50.5311 51.3311 50.8236 51.1865 51.1121 51.1092C51.6066 50.9766 52.0574 51.0105 52.4644 51.2106C52.892 51.4052 53.1749 51.7601 53.3129 52.2753C53.4178 52.6668 53.4252 53.1065 53.3351 53.5945C53.2258 54.1759 53.0445 54.7766 52.791 55.3967C52.5526 55.9907 52.3217 56.5715 52.0984 57.1393C51.9354 57.6026 51.8253 57.9745 51.7679 58.2549C51.7105 58.5353 51.6956 58.727 51.7232 58.8301C51.7729 59.0155 51.8802 59.0862 52.045 59.042C52.2099 58.9978 52.422 58.8416 52.6814 58.5733C52.9614 58.2995 53.2276 57.9742 53.48 57.5974C53.8984 56.9331 54.3379 56.1417 54.7985 55.2232C55.2742 54.2786 55.721 53.3085 56.139 52.3131C56.5569 51.3177 56.909 50.4062 57.1952 49.5786C57.3015 48.8213 57.4505 48.1409 57.6421 47.5373C57.8338 46.9338 58.1872 46.5631 58.7024 46.425C58.9909 46.3477 59.2396 46.3694 59.4487 46.4901C59.6783 46.6053 59.8152 46.7453 59.8594 46.9101C59.898 47.0544 59.8693 47.1946 59.7733 47.3307C59.6717 47.4463 59.4739 47.5324 59.1799 47.5891C58.9422 47.6086 58.6957 47.7189 58.4403 47.9198C58.185 48.1207 57.9911 48.5923 57.8587 49.3345C57.7277 50.1647 57.6402 51.1158 57.5962 52.1877C57.5727 53.2541 57.5068 54.4092 57.3983 55.653C57.2899 56.8968 57.0558 58.2074 56.696 59.5847C56.3624 60.9772 55.7965 62.4098 54.9985 63.8825C54.2156 65.3291 53.1824 66.6661 51.899 67.8934C50.6362 69.1152 49.1908 69.9442 47.5629 70.3804ZM78.0455 54.8249C76.397 55.2666 74.924 55.3742 73.6265 55.1476C72.3345 54.9417 71.2552 54.4579 70.3885 53.6962C69.5424 52.929 68.9593 51.9479 68.639 50.7527C68.3298 49.5987 68.3001 48.2926 68.5498 46.8343C68.7941 45.3553 69.3624 43.7675 70.255 42.0706C70.9118 40.8124 71.7012 39.596 72.6232 38.4213C73.5397 37.2261 74.499 36.1077 75.5009 35.0662C76.5234 34.0192 77.5454 33.0939 78.5669 32.2901C79.6089 31.4808 80.5838 30.8331 81.4916 30.3469C81.9942 30.0797 82.5051 29.8434 83.0243 29.638C83.5586 29.4065 84.0834 29.2218 84.5985 29.0837C85.4846 28.8463 86.3289 28.7415 87.1315 28.7694C87.934 28.7973 88.6283 28.9978 89.2141 29.3709C89.8 29.744 90.2006 30.3324 90.4159 31.136C90.5374 31.5894 90.5737 32.0545 90.5248 32.5314C90.4965 33.0028 90.4612 33.3656 90.4189 33.6199C90.3902 33.7601 90.3449 33.8385 90.2831 33.855C90.2419 33.8661 90.2027 33.8434 90.1655 33.7871C90.1228 33.7102 90.1111 33.6251 90.1302 33.5316C90.2052 33.0698 90.2013 32.6843 90.1185 32.3752C89.9805 31.8601 89.6544 31.5499 89.1403 31.4447C88.6413 31.3133 88.0106 31.3498 87.2482 31.5541C86.3827 31.786 85.3986 32.1933 84.2958 32.7759C83.193 33.3585 82.0457 34.0635 80.8539 34.8908C79.6827 35.7126 78.5308 36.6065 77.3982 37.5726C76.2657 38.5386 75.2218 39.5471 74.2666 40.5982C73.3265 41.6231 72.5465 42.6272 71.9265 43.6105C70.9033 45.2319 70.2214 46.6845 69.8807 47.9685C69.5552 49.2262 69.5084 50.2879 69.7403 51.1533C70.0881 52.4515 70.9693 53.3087 72.3839 53.7247C73.7984 54.1408 75.5257 54.0755 77.5657 53.5289C78.1015 53.3853 78.6496 53.2053 79.21 52.9889C79.7704 52.7725 80.3459 52.53 80.9365 52.2613C82.3278 51.6014 83.7066 50.8123 85.0728 49.8941C86.4541 48.9497 87.7357 47.9217 88.9175 46.8099C90.1145 45.672 91.1582 44.4979 92.0486 43.2875C92.9541 42.051 93.6294 40.821 94.0745 39.5974C94.2088 39.2743 94.2966 39.1072 94.3378 39.0962C94.3584 39.0907 94.377 39.1188 94.3935 39.1806C94.4046 39.2219 94.4184 39.2734 94.435 39.3352C94.446 39.3764 94.4447 39.454 94.4311 39.5681C94.3852 40.2209 94.1216 41.0093 93.6403 41.9334C93.1591 42.8574 92.5082 43.849 91.6877 44.9081C90.8617 45.9466 89.9168 46.9949 88.8531 48.0529C87.7893 49.111 86.6444 50.1134 85.4184 51.0604C84.1869 51.9867 82.9194 52.779 81.6161 53.4375C80.4103 54.0477 79.2201 54.5102 78.0455 54.8249ZM73.4126 45.2C73.1859 45.2608 72.9894 45.2692 72.8231 45.2255C72.7296 45.2063 72.6278 45.1563 72.5178 45.0754C72.4023 44.9738 72.3224 44.8406 72.2782 44.6757C72.212 44.4285 72.3153 44.1137 72.5883 43.7313C72.882 43.3434 73.5575 42.8974 74.6151 42.3931C74.9694 42.2319 75.3677 42.07 75.81 41.9073C76.2523 41.7446 76.7208 41.597 77.2153 41.4645C78.0808 41.2326 78.9731 41.0598 79.8923 40.946C80.8266 40.8061 81.6875 40.7631 82.475 40.8171C83.2831 40.8657 83.9147 41.0387 84.3699 41.3364C84.5322 41.4475 84.6327 41.5752 84.6714 41.7194C84.7155 41.8843 84.6552 41.9888 84.4903 42.033C84.3667 42.0661 84.2086 42.0532 84.0162 41.9944C83.5996 41.841 83.0657 41.7853 82.4144 41.8273C81.7836 41.8637 81.0768 41.9869 80.2937 42.1967C78.9131 42.5666 77.4454 43.1476 75.8908 43.9397C75.4032 44.1807 74.9521 44.4341 74.5374 44.6998C74.1172 44.9449 73.7423 45.1117 73.4126 45.2ZM89.1775 53.4985C89.0951 53.5206 89.0353 53.5035 88.9982 53.4472C88.9404 53.3964 88.9417 53.3188 89.002 53.2143C89.4144 52.1982 89.9729 50.9443 90.6775 49.4524C91.3614 47.9661 92.1559 46.4391 93.061 44.8714C92.5366 44.1506 92.1667 43.3884 91.9514 42.5847C91.7195 41.7192 91.7076 41.0157 91.9159 40.474C91.9858 40.3227 92.1683 40.0971 92.4634 39.7972C92.7584 39.4973 93.0412 39.2338 93.3117 39.0067C93.567 38.8058 93.7668 38.686 93.9111 38.6473C94.0347 38.6142 94.0671 38.6939 94.0082 38.8863C93.8221 39.5104 93.856 40.2964 94.11 41.2443C94.2204 41.6565 94.3645 42.0706 94.5423 42.4868C95.3091 41.3096 96.1213 40.2195 96.979 39.2167C97.8366 38.2139 98.7151 37.3711 99.6144 36.6885C100.508 35.9852 101.414 35.5327 102.332 35.3309C102.373 35.3199 102.389 35.3377 102.379 35.3845C102.39 35.4257 102.354 35.4573 102.272 35.4794C101.53 35.6782 100.678 36.2488 99.716 37.1913C98.7538 38.1338 97.7768 39.268 96.7848 40.5939C96.4816 41.0285 96.1709 41.4762 95.8526 41.9369C95.555 42.3921 95.247 42.8501 94.9288 43.3108C95.2924 44.0085 95.6992 44.6615 96.1493 45.2697C96.62 45.8724 97.0782 46.3459 97.5239 46.6903C97.8223 46.8975 98.1173 47.0504 98.4087 47.149C98.7208 47.242 99.0416 47.2444 99.3713 47.156C99.7629 47.0511 100.018 46.8502 100.137 46.5532C100.168 46.501 100.209 46.4899 100.261 46.5201C100.308 46.5297 100.316 46.5606 100.286 46.6128C100.197 46.8575 100.043 47.0645 99.8229 47.2338C99.6238 47.3976 99.4109 47.5099 99.1843 47.5706C98.3806 47.7859 97.6255 47.8116 96.919 47.6475C96.2275 47.4573 95.5964 47.1626 95.0256 46.7634C94.47 46.3381 93.9892 45.9037 93.5832 45.4603C92.6314 47.0184 91.7997 48.4892 91.0882 49.8724C90.3615 51.2819 89.844 52.3592 89.5357 53.1044C89.4618 53.323 89.3424 53.4543 89.1775 53.4985ZM99.519 56.757C99.3196 56.5896 99.1063 56.3706 98.8792 56.1002C98.6316 55.8353 98.4359 55.4349 98.2924 54.8991C98.1764 54.4664 98.1626 53.7965 98.2508 52.8894C98.3446 52.0029 98.511 50.9755 98.7501 49.8072C98.9686 48.6443 99.2509 47.4313 99.597 46.168C99.9171 44.8896 100.264 43.6702 100.638 42.51C100.351 43.0064 100.043 43.4644 99.7139 43.8839C99.648 43.9678 99.5945 44.0153 99.5533 44.0263C99.4914 44.0429 99.4495 44.01 99.4274 43.9275C99.4164 43.8863 99.4279 43.8059 99.4622 43.6863C99.4758 43.5722 99.5306 43.4471 99.6266 43.311C99.9449 42.8502 100.312 42.2438 100.729 41.4916C101.141 40.7188 101.55 39.858 101.959 38.9093C102.273 38.1848 102.544 37.5489 102.773 37.0017C102.996 36.4339 103.183 36.0193 103.334 35.758C103.5 35.4706 103.659 35.2403 103.811 35.0669C103.964 34.8936 104.143 34.7793 104.349 34.7241C104.576 34.6634 104.85 34.6562 105.172 34.7025C105.508 34.7227 105.849 34.8412 106.194 35.0579C106.039 35.3865 105.843 35.8478 105.604 36.4417C105.366 37.0357 105.143 37.6035 104.934 38.1452C105.259 37.4618 105.755 36.7988 106.422 36.1563C107.089 35.5137 107.763 35.1014 108.443 34.9191C109.061 34.7535 109.608 34.8167 110.084 35.1089C110.56 35.401 110.883 35.8665 111.055 36.5053C111.242 37.2059 111.254 38.0311 111.088 38.9809C110.918 39.91 110.608 40.8545 110.158 41.8142C109.608 42.9774 108.919 43.9904 108.09 44.853C107.282 45.7101 106.476 46.2463 105.672 46.4616C105.095 46.6162 104.598 46.5729 104.18 46.3315C103.761 46.0901 103.467 45.6501 103.296 45.0113C103.119 44.3519 103.073 43.6023 103.157 42.7625C102.788 43.6122 102.406 44.576 102.01 45.6539C101.635 46.7262 101.276 47.8164 100.932 48.9244C100.588 50.0324 100.296 51.0826 100.053 52.0751C99.7908 53.0731 99.6036 53.9404 99.4918 54.6771C99.38 55.4138 99.3683 55.9471 99.4566 56.2768C99.5008 56.4416 99.549 56.5391 99.6013 56.5693C99.6852 56.6351 99.7093 56.6839 99.6736 56.7156C99.6228 56.7733 99.5713 56.7871 99.519 56.757ZM105.426 46.163C106.024 46.0029 106.562 45.6601 107.039 45.1346C107.532 44.5829 107.932 43.9345 108.241 43.1893C108.549 42.4442 108.753 41.6826 108.854 40.9047C108.955 40.1268 108.923 39.4287 108.757 38.8105C108.608 38.2541 108.358 37.8573 108.007 37.62C107.677 37.3771 107.285 37.3165 106.832 37.4379C106.296 37.5815 105.752 37.9813 105.199 38.6375C104.64 39.273 104.199 40.0981 103.874 41.1126C103.622 41.8207 103.486 42.5086 103.467 43.1765C103.462 43.8183 103.523 44.3761 103.65 44.8501C103.81 45.4476 104.05 45.8472 104.369 46.0489C104.682 46.2299 105.035 46.268 105.426 46.163ZM116.382 43.36C115.475 43.603 114.655 43.5909 113.921 43.3238C113.202 43.0306 112.729 42.4615 112.503 41.6167C112.26 40.71 112.25 39.8072 112.473 38.9082C112.695 38.0092 113.09 37.1746 113.657 36.4043C114.218 35.6135 114.877 34.94 115.633 34.3839C116.41 33.8223 117.221 33.4283 118.066 33.202C118.911 32.9756 119.581 32.9617 120.076 33.1604C120.565 33.3385 120.868 33.6439 120.984 34.0766C121.094 34.4887 121.017 34.9842 120.753 35.5631C120.503 36.1158 120.065 36.6639 119.438 37.2075C119.04 37.535 118.564 37.8613 118.01 38.1863C117.472 38.4851 116.987 38.6925 116.554 38.8085C116.224 38.8968 116.045 38.8895 116.018 38.7864C115.996 38.704 116.129 38.6241 116.417 38.5468C116.685 38.4751 117.078 38.2925 117.596 37.9992C118.129 37.6797 118.627 37.3143 119.091 36.9028C119.6 36.413 119.934 35.9701 120.093 35.5742C120.252 35.1782 120.296 34.8463 120.224 34.5784C120.158 34.3311 120 34.1527 119.749 34.043C119.52 33.9279 119.23 33.9172 118.879 34.0111C118.55 34.0994 118.204 34.2915 117.841 34.5874C117.315 35.0154 116.816 35.6241 116.343 36.4135C115.885 37.1767 115.546 37.9741 115.327 38.8058C115.108 39.6375 115.087 40.383 115.264 41.0424C115.386 41.4957 115.611 41.8438 115.941 42.0867C116.292 42.324 116.725 42.3736 117.24 42.2356C117.776 42.092 118.35 41.7615 118.962 41.2441C119.569 40.7061 120.167 40.0931 120.755 39.4053C121.339 38.6969 121.87 38.0023 122.35 37.3215C122.831 36.6407 123.209 36.0754 123.486 35.6258C123.577 35.469 123.653 35.3823 123.715 35.3658C123.777 35.3492 123.821 35.3924 123.849 35.4955C123.888 35.6397 123.859 35.7799 123.763 35.9161C123.173 36.8471 122.519 37.8284 121.802 38.8599C121.105 39.8859 120.306 40.8179 119.404 41.6558C118.517 42.4677 117.51 43.0357 116.382 43.36ZM128.45 39.8282C127.564 40.0656 126.922 40.0609 126.525 39.814C126.122 39.5465 125.865 39.2067 125.755 38.7946C125.611 38.2588 125.665 37.637 125.917 36.9289C126.071 36.5124 126.244 36.0463 126.437 35.5308C126.625 34.9946 126.8 34.4949 126.963 34.0316C127.126 33.5683 127.237 33.2404 127.296 33.0479C127.385 32.8032 127.431 32.6472 127.436 32.5798C127.455 32.4864 127.453 32.3984 127.431 32.316C127.398 32.1924 127.285 32.1011 127.093 32.0422C126.915 31.9573 126.651 31.9617 126.301 32.0556C126.198 32.0832 126.108 32.1183 126.031 32.161C125.969 32.1776 125.897 32.1969 125.815 32.219C125.65 32.2632 125.555 32.2777 125.528 32.2626L125.469 32.4111C125.096 33.3281 124.679 34.2459 124.219 35.1644C123.753 36.0623 123.211 36.9253 122.594 37.7533C122.528 37.8372 122.474 37.8847 122.433 37.8957C122.35 37.9178 122.298 37.8877 122.276 37.8052C122.232 37.6404 122.306 37.4218 122.498 37.1495C122.993 36.4425 123.462 35.6765 123.903 34.8515C124.339 34.0058 124.705 33.1458 125.001 32.2715C124.782 32.1975 124.623 31.9751 124.524 31.6042C124.375 31.0478 124.39 30.4033 124.569 29.6706C124.7 29.1716 124.882 28.7805 125.116 28.4971C125.364 28.1876 125.602 28.0025 125.828 27.9418C126.261 27.8258 126.546 28.0254 126.684 28.5406C126.773 28.8703 126.76 29.3155 126.645 29.8763C126.608 30.1512 126.488 30.5258 126.283 31.0002C126.094 31.4484 125.878 31.7936 125.633 32.0357C126.027 31.7755 126.549 31.5365 127.197 31.3186C127.86 31.0746 128.419 30.8918 128.872 30.7703C129.14 30.6986 129.492 30.6927 129.927 30.7526C130.358 30.7919 130.625 31.0074 130.73 31.3989C130.802 31.6668 130.756 31.9884 130.591 32.3637C130.551 32.4627 130.439 32.7027 130.254 33.0835C130.069 33.4644 129.869 33.9154 129.656 34.4365C129.463 34.952 129.29 35.4621 129.138 35.9666C128.975 36.4299 128.855 36.8485 128.779 37.2223C128.723 37.5907 128.725 37.8882 128.786 38.1149C128.874 38.4446 129.104 38.5597 129.475 38.4603C129.908 38.3444 130.429 37.9837 131.04 37.3784C131.651 36.773 132.283 36.0405 132.936 35.1808C133.604 34.295 134.195 33.4079 134.708 32.5196C134.768 32.4151 134.829 32.3545 134.891 32.338C134.973 32.3159 135.028 32.3564 135.056 32.4594C135.089 32.583 135.068 32.7102 134.993 32.8408C134.465 33.7553 133.86 34.7125 133.178 35.7123C132.511 36.6861 131.773 37.5575 130.963 38.3266C130.174 39.0903 129.336 39.5908 128.45 39.8282ZM139.332 26.7418C139.044 26.8191 138.803 26.7843 138.609 26.6375C138.415 26.4907 138.29 26.3143 138.235 26.1082C138.125 25.6961 138.213 25.2418 138.499 24.7454C138.78 24.2283 139.137 23.9118 139.57 23.7959C139.859 23.7186 140.1 23.7533 140.294 23.9001C140.488 24.0469 140.612 24.2234 140.667 24.4294C140.783 24.8622 140.698 25.3268 140.411 25.8232C140.145 26.3141 139.786 26.6203 139.332 26.7418ZM137.146 37.4982C136.301 37.7246 135.677 37.704 135.274 37.4365C134.886 37.1429 134.632 36.7694 134.51 36.3161C134.411 35.9452 134.379 35.5783 134.414 35.2155C134.444 34.832 134.48 34.5572 134.524 34.3908C134.593 34.1516 134.694 33.8705 134.828 33.5474C134.983 33.2188 135.153 32.864 135.338 32.4832C135.02 32.9439 134.72 33.3888 134.437 33.8179C134.175 34.2415 133.953 34.566 133.77 34.7916C133.725 34.87 133.672 34.9175 133.61 34.9341C133.527 34.9561 133.472 34.9157 133.445 34.8126C133.4 34.6478 133.47 34.4526 133.652 34.227C134.066 33.6301 134.449 32.9975 134.8 32.3292C135.172 31.6554 135.523 31.0311 135.855 30.4563C136.182 29.8609 136.495 29.4235 136.796 29.1442C137.111 28.8387 137.374 28.6247 137.584 28.5022C137.795 28.3796 137.972 28.299 138.116 28.2603C138.343 28.1996 138.519 28.1966 138.644 28.2515C138.763 28.2857 138.803 28.3523 138.763 28.4513C138.507 28.8954 138.278 29.4426 138.077 30.0929C137.891 30.717 137.734 31.3665 137.605 32.0414C137.477 32.7163 137.392 33.3464 137.35 33.9319C137.328 34.5118 137.368 34.9873 137.467 35.3582C137.605 35.8733 137.88 36.0757 138.292 35.9653C138.684 35.8604 139.142 35.5499 139.666 35.034C140.205 34.4919 140.741 33.8516 141.271 33.113C141.823 32.3689 142.326 31.6489 142.78 30.953C142.84 30.8485 142.901 30.788 142.963 30.7714C143.066 30.7438 143.131 30.7815 143.159 30.8845C143.207 30.982 143.206 31.0597 143.155 31.1175C142.646 31.9385 142.053 32.8152 141.375 33.7478C140.713 34.6541 140.012 35.4603 139.274 36.1661C138.556 36.8664 137.846 37.3105 137.146 37.4982ZM146.567 35.2719C145.66 35.5149 144.84 35.5028 144.106 35.2357C143.387 34.9425 142.914 34.3734 142.688 33.5286C142.445 32.6219 142.435 31.7191 142.658 30.8201C142.881 29.9211 143.275 29.0865 143.842 28.3162C144.403 27.5254 145.062 26.8519 145.818 26.2958C146.596 25.7342 147.407 25.3403 148.251 25.1139C149.096 24.8875 149.766 24.8736 150.261 25.0723C150.751 25.2504 151.053 25.5558 151.169 25.9885C151.28 26.4006 151.203 26.8961 150.938 27.475C150.689 28.0277 150.25 28.5758 149.623 29.1194C149.225 29.4469 148.749 29.7732 148.196 30.0982C147.657 30.397 147.172 30.6044 146.739 30.7204C146.409 30.8087 146.231 30.8014 146.203 30.6983C146.181 30.6159 146.314 30.536 146.603 30.4587C146.871 30.387 147.263 30.2044 147.781 29.9111C148.314 29.5916 148.812 29.2262 149.276 28.8147C149.785 28.3249 150.12 27.882 150.278 27.4861C150.437 27.0901 150.481 26.7582 150.409 26.4903C150.343 26.243 150.185 26.0646 149.934 25.9549C149.705 25.8398 149.415 25.8291 149.065 25.923C148.735 26.0113 148.389 26.2034 148.026 26.4993C147.501 26.9273 147.001 27.536 146.528 28.3254C146.07 29.0886 145.731 29.8861 145.513 30.7177C145.294 31.5494 145.273 32.2949 145.449 32.9543C145.571 33.4076 145.796 33.7557 146.127 33.9986C146.477 34.2359 146.91 34.2855 147.425 34.1475C147.961 34.0039 148.535 33.6734 149.147 33.156C149.754 32.618 150.352 32.005 150.941 31.3172C151.524 30.6088 152.055 29.9142 152.536 29.2334C153.016 28.5526 153.394 27.9874 153.671 27.5377C153.762 27.3809 153.838 27.2942 153.9 27.2777C153.962 27.2611 154.006 27.3043 154.034 27.4074C154.073 27.5516 154.044 27.6918 153.948 27.828C153.358 28.759 152.705 29.7403 151.987 30.7718C151.29 31.7978 150.491 32.7298 149.589 33.5677C148.702 34.3796 147.695 34.9476 146.567 35.2719ZM153.877 33.1475C153.671 33.2027 153.41 33.2175 153.094 33.1917C152.784 33.1866 152.451 33.0991 152.096 32.9291C152.24 32.5592 152.459 32.0588 152.754 31.4277C153.023 30.7815 153.308 30.0755 153.611 29.3097C153.914 28.5439 154.186 27.7864 154.427 27.0371C154.185 27.4552 153.919 27.9021 153.626 28.378C153.334 28.8538 153.034 29.2987 152.725 29.7127C152.665 29.8172 152.583 29.8833 152.48 29.9109C152.398 29.933 152.345 29.9028 152.323 29.8204C152.296 29.7173 152.345 29.5716 152.471 29.3832C152.91 28.7134 153.392 27.955 153.916 27.1078C154.455 26.2346 154.795 25.4035 154.937 24.6145C154.974 24.3396 154.965 24.0991 154.909 23.8931C154.838 23.6252 154.742 23.4742 154.622 23.4399C154.523 23.4002 154.46 23.3288 154.432 23.2258C154.383 23.0403 154.451 22.9228 154.636 22.8731C154.739 22.8455 154.827 22.844 154.9 22.8686C155.154 22.9109 155.423 23.0487 155.706 23.282C155.99 23.5153 156.209 23.9204 156.363 24.4974C156.452 24.8271 156.513 25.2193 156.546 25.6741C156.574 26.1084 156.557 26.621 156.494 27.2119C156.693 26.717 156.894 26.2323 157.099 25.758C157.323 25.2781 157.528 24.8478 157.713 24.4669C158.099 23.679 158.534 23.0766 159.018 22.6596C159.518 22.2165 159.994 21.9343 160.448 21.8128C160.983 21.6692 161.458 21.7078 161.87 21.9286C162.283 22.1493 162.555 22.507 162.688 23.0015C162.793 23.3931 162.797 23.8225 162.702 24.2898C162.684 24.4712 162.609 24.7675 162.476 25.1785C162.338 25.569 162.187 25.9958 162.024 26.4591C161.861 26.9224 161.708 27.339 161.564 27.7088C161.384 28.1103 161.276 28.4485 161.239 28.7234C161.197 28.9777 161.195 29.1769 161.234 29.3212C161.289 29.5272 161.43 29.5999 161.657 29.5392C161.945 29.4619 162.305 29.1996 162.738 28.7525C162.997 28.4842 163.281 28.1431 163.59 27.7291C163.914 27.2889 164.227 26.8516 164.53 26.417C164.849 25.9562 165.101 25.5794 165.288 25.2865C165.348 25.182 165.409 25.1214 165.471 25.1049C165.553 25.0828 165.608 25.1232 165.636 25.2263C165.669 25.3499 165.648 25.4771 165.572 25.6077C165.109 26.3503 164.556 27.1721 163.914 28.0729C163.293 28.9683 162.64 29.7063 161.956 30.2871C161.4 30.7673 160.855 31.0792 160.319 31.2228C159.865 31.3443 159.474 31.3275 159.146 31.1727C158.812 30.9972 158.584 30.6827 158.462 30.2294C158.374 29.8997 158.352 29.4861 158.395 28.9886C158.452 28.377 158.591 27.7433 158.813 27.0876C159.056 26.4263 159.317 25.7931 159.596 25.1882C159.891 24.557 160.146 24.0249 160.361 23.5918C160.552 23.2315 160.619 22.9484 160.564 22.7423C160.514 22.5568 160.366 22.4972 160.119 22.5635C159.871 22.6297 159.539 22.8734 159.122 23.2944C158.72 23.6893 158.303 24.2759 157.871 25.0542C157.263 26.1666 156.778 27.3236 156.416 28.5251C156.053 29.7266 155.581 30.8911 154.999 32.0186C154.684 32.6553 154.31 33.0316 153.877 33.1475ZM169.326 29.1737C168.44 29.4111 167.63 29.3963 166.896 29.1292C166.177 28.836 165.704 28.2669 165.478 27.4221C165.235 26.5154 165.225 25.6126 165.448 24.7136C165.691 23.809 166.096 22.9717 166.663 22.2014C167.224 21.4106 167.883 20.7371 168.639 20.1811C169.416 19.6194 170.227 19.2255 171.072 18.9991C171.917 18.7727 172.577 18.7616 173.051 18.9658C173.546 19.1645 173.851 19.4802 173.967 19.9129C174.045 20.2014 174.04 20.512 173.952 20.8446C173.859 21.1567 173.668 21.3514 173.38 21.4287C173.194 21.4783 173.082 21.4311 173.043 21.2868C173.016 21.1838 173.022 21.0828 173.062 20.9838C173.193 20.4848 173.214 20.0705 173.126 19.7407C173.016 19.3286 172.744 19.1805 172.311 19.2965C171.961 19.3903 171.544 19.6458 171.059 20.0627C170.661 20.3903 170.262 20.8394 169.863 21.4102C169.479 21.9548 169.145 22.5633 168.861 23.2356C168.572 23.8874 168.361 24.5404 168.227 25.1946C168.108 25.8228 168.115 26.3841 168.247 26.8787C168.374 27.3526 168.613 27.7083 168.964 27.9456C169.315 28.1829 169.758 28.2298 170.294 28.0862C170.644 27.9924 171.034 27.7995 171.464 27.5077C171.914 27.2103 172.388 26.7961 172.887 26.2651C173.298 25.8234 173.714 25.3145 174.134 24.7382C174.574 24.1564 174.991 23.5698 175.385 22.9784C175.779 22.387 176.117 21.8768 176.399 21.4477C176.49 21.2909 176.576 21.2015 176.659 21.1794C176.741 21.1573 176.796 21.1978 176.824 21.3009C176.863 21.4451 176.834 21.5853 176.738 21.7215C176.335 22.3596 175.891 23.0527 175.407 23.8008C174.917 24.5284 174.388 25.2333 173.82 25.9156C173.272 26.5923 172.71 27.1736 172.134 27.6594C171.189 28.4205 170.253 28.9252 169.326 29.1737ZM179.831 26.3588C178.925 26.6018 178.104 26.5897 177.37 26.3226C176.651 26.0294 176.178 25.4604 175.952 24.6155C175.709 23.7088 175.699 22.806 175.922 21.907C176.145 21.008 176.539 20.1734 177.106 19.4031C177.667 18.6123 178.326 17.9388 179.083 17.3828C179.86 16.8212 180.671 16.4272 181.516 16.2008C182.36 15.9744 183.03 15.9606 183.525 16.1592C184.015 16.3373 184.317 16.6427 184.433 17.0754C184.544 17.4875 184.467 17.983 184.202 18.5619C183.953 19.1146 183.514 19.6628 182.887 20.2063C182.489 20.5339 182.013 20.8601 181.46 21.1851C180.921 21.4839 180.436 21.6913 180.003 21.8073C179.673 21.8956 179.495 21.8883 179.467 21.7852C179.445 21.7028 179.578 21.623 179.867 21.5457C180.135 21.4739 180.527 21.2913 181.045 20.998C181.578 20.6786 182.076 20.3131 182.54 19.9017C183.05 19.4118 183.384 18.9689 183.543 18.573C183.701 18.177 183.745 17.8451 183.673 17.5772C183.607 17.3299 183.449 17.1515 183.199 17.0418C182.969 16.9267 182.679 16.916 182.329 17.0099C181.999 17.0983 181.653 17.2904 181.29 17.5863C180.765 18.0143 180.265 18.6229 179.792 19.4123C179.334 20.1755 178.995 20.973 178.777 21.8046C178.558 22.6363 178.537 23.3818 178.713 24.0412C178.835 24.4946 179.061 24.8426 179.391 25.0855C179.741 25.3228 180.174 25.3724 180.689 25.2344C181.225 25.0908 181.799 24.7604 182.412 24.2429C183.018 23.7049 183.616 23.092 184.205 22.4042C184.788 21.6957 185.32 21.0011 185.8 20.3203C186.28 19.6395 186.658 19.0743 186.936 18.6246C187.026 18.4678 187.102 18.3811 187.164 18.3646C187.226 18.348 187.271 18.3912 187.298 18.4943C187.337 18.6385 187.308 18.7787 187.212 18.9149C186.622 19.8459 185.969 20.8272 185.251 21.8587C184.554 22.8847 183.755 23.8167 182.853 24.6547C181.966 25.4665 180.959 26.0346 179.831 26.3588ZM189.108 23.9064C188.283 24.1272 187.521 24.1659 186.82 24.0225C186.093 23.864 185.469 23.3906 184.948 22.6024C184.906 22.5255 184.923 22.4657 185 22.423C185.056 22.3859 185.108 22.416 185.156 22.5136C185.484 22.9117 185.837 23.1593 186.217 23.2564C186.596 23.3535 186.982 23.3496 187.373 23.2447C188.033 23.068 188.557 22.7177 188.947 22.1936C189.357 21.6641 189.678 21.048 189.909 20.3456C190.161 19.6375 190.359 18.933 190.502 18.232C190.661 17.5049 190.824 16.876 190.991 16.3453C191.24 15.4614 191.591 14.6276 192.043 13.8437C192.516 13.0544 192.991 12.5185 193.468 12.2363C193.327 12.2076 193.165 12.2181 192.979 12.2678C192.464 12.4058 191.939 12.7122 191.403 13.1869C190.868 13.6617 190.347 14.2319 189.841 14.8976C189.355 15.5578 188.888 16.2462 188.44 16.9627C188.006 17.653 187.606 18.3014 187.238 18.9079C186.886 19.4882 186.601 19.951 186.384 20.2962C186.258 20.4846 186.154 20.5898 186.071 20.6119C185.989 20.634 185.937 20.6039 185.915 20.5214C185.882 20.3978 185.903 20.2706 185.978 20.14C186.453 19.4386 186.931 18.6698 187.414 17.8338C187.891 16.9771 188.387 16.1485 188.902 15.3481C189.41 14.5271 189.96 13.8167 190.55 13.2168C191.14 12.6169 191.796 12.2204 192.517 12.0271C192.6 12.0051 192.672 11.9857 192.734 11.9692C192.816 11.9471 192.901 11.9353 192.989 11.9338C193.221 11.8937 193.444 11.9003 193.657 11.9536C193.891 12.0014 193.972 12.057 193.9 12.1203C193.482 12.4534 193.221 12.9649 193.119 13.6548C193.017 14.3448 192.963 15.1323 192.957 16.0173C192.951 16.9023 192.897 17.8114 192.793 18.7446C192.71 19.6723 192.459 20.5459 192.038 21.3654C192.299 21.1851 192.688 20.8266 193.207 20.2901C193.726 19.7535 194.285 19.118 194.883 18.3834C195.476 17.6283 196.003 16.8354 196.465 16.0048C196.526 15.9003 196.597 15.837 196.679 15.815C196.782 15.7873 196.848 15.8251 196.875 15.9281C196.897 16.0105 196.878 16.104 196.818 16.2085C196.405 16.8933 195.942 17.636 195.427 18.4364C194.907 19.2162 194.317 19.9816 193.657 20.7327C193.018 21.4783 192.322 22.1394 191.571 22.7161C190.815 23.2722 189.994 23.669 189.108 23.9064Z"
                        fill="#BB6BD9" />
                </svg>