<svg width="24" height="24" viewBox="0 0 24 24" fill="none" xmlns="http://www.w3.org/2000/svg">
                        <rect y="6.10352e-05" width="24" height="24" fill="white" />
                        <path
                            d="M3.55645 2.00006C4.94378 2.00006 6.11204 3.16832 6.11204 4.55566C6.11204 6.01599 4.87074 7.14777 3.55645 7.11125C2.20563 7.14777 1.00085 6.01599 1.00085 4.55566C0.96433 3.13181 2.13263 2.00006 3.55645 2.00006Z"
                            fill="#007AAA" />
                        <path
                            d="M4.9803 22.81H2.0596C1.65802 22.81 1.32944 22.4814 1.32944 22.0798V9.30185C1.32944 8.90027 1.6215 8.57169 2.02308 8.57169H4.98026C5.38184 8.57169 5.71042 8.90027 5.71042 9.30185V22.1164C5.71047 22.4814 5.38188 22.81 4.9803 22.81Z"
                            fill="#007AAA" />
                        <path
                            d="M22.1393 13.0257C22.1393 10.324 20.1313 8.20654 17.4297 8.20654H16.663C15.2027 8.20654 13.7788 8.90019 13.0121 10.032C12.7566 10.2875 12.647 10.3971 12.647 10.3971V8.93675C12.647 8.79072 12.428 8.57165 12.2819 8.57165H8.63108C8.48505 8.57165 8.26598 8.71768 8.26598 8.90023V22.5179C8.26598 22.664 8.48505 22.81 8.63108 22.81H12.647C12.793 22.81 13.0121 22.664 13.0121 22.5179V14.632C13.0121 13.2812 14.0343 12.1494 15.3852 12.113C16.0788 12.113 16.6994 12.3685 17.1741 12.8431C17.6122 13.2812 17.7947 13.9019 17.7947 14.5955V22.4449C17.7947 22.5909 18.0138 22.81 18.1598 22.81H21.8107C21.9567 22.81 22.1758 22.5909 22.1758 22.4449V13.0257H22.1393Z"
                            fill="#007AAA" />
                    </svg>