<svg width="556" height="649" viewBox="0 0 556 649" fill="none" xmlns="http://www.w3.org/2000/svg">
                    <line x1="10" y1="2" x2="9.99997" y2="647" stroke="#FAEEFF" stroke-width="4"
                        stroke-linecap="round" />
                    <circle cx="10" cy="128" r="10" fill="#9B51E0" />
                    <circle cx="10" cy="318" r="10" fill="#9B51E0" />
                    <circle cx="10" cy="508" r="10" fill="#9B51E0" />
                    <path
                        d="M61.992 122.242V129.452C61.992 130.255 61.7447 130.899 61.25 131.384C60.7553 131.86 60.102 132.098 59.29 132.098C58.4687 132.098 57.8107 131.855 57.316 131.37C56.8213 130.875 56.574 130.203 56.574 129.354H57.848C57.8573 129.83 57.9787 130.217 58.212 130.516C58.4547 130.815 58.814 130.964 59.29 130.964C59.766 130.964 60.1207 130.824 60.354 130.544C60.5873 130.255 60.704 129.891 60.704 129.452V122.242H61.992ZM64.0258 128.136C64.0258 127.352 64.1845 126.666 64.5018 126.078C64.8192 125.481 65.2532 125.019 65.8038 124.692C66.3638 124.365 66.9845 124.202 67.6658 124.202C68.3378 124.202 68.9212 124.347 69.4158 124.636C69.9105 124.925 70.2792 125.289 70.5218 125.728V124.328H71.8098V132H70.5218V130.572C70.2698 131.02 69.8918 131.393 69.3878 131.692C68.8932 131.981 68.3145 132.126 67.6518 132.126C66.9705 132.126 66.3545 131.958 65.8038 131.622C65.2532 131.286 64.8192 130.815 64.5018 130.208C64.1845 129.601 64.0258 128.911 64.0258 128.136ZM70.5218 128.15C70.5218 127.571 70.4052 127.067 70.1718 126.638C69.9385 126.209 69.6212 125.882 69.2198 125.658C68.8278 125.425 68.3938 125.308 67.9178 125.308C67.4418 125.308 67.0078 125.42 66.6158 125.644C66.2238 125.868 65.9112 126.195 65.6778 126.624C65.4445 127.053 65.3278 127.557 65.3278 128.136C65.3278 128.724 65.4445 129.237 65.6778 129.676C65.9112 130.105 66.2238 130.437 66.6158 130.67C67.0078 130.894 67.4418 131.006 67.9178 131.006C68.3938 131.006 68.8278 130.894 69.2198 130.67C69.6212 130.437 69.9385 130.105 70.1718 129.676C70.4052 129.237 70.5218 128.729 70.5218 128.15ZM77.7008 124.188C78.6341 124.188 79.3901 124.473 79.9688 125.042C80.5474 125.602 80.8368 126.414 80.8368 127.478V132H79.5768V127.66C79.5768 126.895 79.3854 126.311 79.0028 125.91C78.6201 125.499 78.0974 125.294 77.4348 125.294C76.7628 125.294 76.2261 125.504 75.8248 125.924C75.4328 126.344 75.2368 126.955 75.2368 127.758V132H73.9628V124.328H75.2368V125.42C75.4888 125.028 75.8294 124.725 76.2588 124.51C76.6974 124.295 77.1781 124.188 77.7008 124.188ZM86.2863 130.978C87.4716 130.026 88.4003 129.247 89.0723 128.64C89.7443 128.024 90.3089 127.385 90.7663 126.722C91.2329 126.05 91.4663 125.392 91.4663 124.748C91.4663 124.141 91.3169 123.665 91.0183 123.32C90.7289 122.965 90.2576 122.788 89.6043 122.788C88.9696 122.788 88.4749 122.989 88.1203 123.39C87.7749 123.782 87.5883 124.309 87.5603 124.972H86.3283C86.3656 123.927 86.6829 123.119 87.2803 122.55C87.8776 121.981 88.6476 121.696 89.5903 121.696C90.5516 121.696 91.3123 121.962 91.8723 122.494C92.4416 123.026 92.7263 123.759 92.7263 124.692C92.7263 125.467 92.4929 126.223 92.0263 126.96C91.5689 127.688 91.0463 128.332 90.4583 128.892C89.8703 129.443 89.1189 130.087 88.2043 130.824H93.0203V131.888H86.2863V130.978ZM94.493 126.834C94.493 125.229 94.7543 123.978 95.277 123.082C95.7997 122.177 96.7143 121.724 98.021 121.724C99.3183 121.724 100.228 122.177 100.751 123.082C101.274 123.978 101.535 125.229 101.535 126.834C101.535 128.467 101.274 129.737 100.751 130.642C100.228 131.547 99.3183 132 98.021 132C96.7143 132 95.7997 131.547 95.277 130.642C94.7543 129.737 94.493 128.467 94.493 126.834ZM100.275 126.834C100.275 126.022 100.219 125.336 100.107 124.776C100.004 124.207 99.785 123.749 99.449 123.404C99.1223 123.059 98.6463 122.886 98.021 122.886C97.3863 122.886 96.901 123.059 96.565 123.404C96.2383 123.749 96.019 124.207 95.907 124.776C95.8043 125.336 95.753 126.022 95.753 126.834C95.753 127.674 95.8043 128.379 95.907 128.948C96.019 129.517 96.2383 129.975 96.565 130.32C96.901 130.665 97.3863 130.838 98.021 130.838C98.6463 130.838 99.1223 130.665 99.449 130.32C99.785 129.975 100.004 129.517 100.107 128.948C100.219 128.379 100.275 127.674 100.275 126.834ZM103.13 130.978C104.315 130.026 105.244 129.247 105.916 128.64C106.588 128.024 107.153 127.385 107.61 126.722C108.077 126.05 108.31 125.392 108.31 124.748C108.31 124.141 108.161 123.665 107.862 123.32C107.573 122.965 107.101 122.788 106.448 122.788C105.813 122.788 105.319 122.989 104.964 123.39C104.619 123.782 104.432 124.309 104.404 124.972H103.172C103.209 123.927 103.527 123.119 104.124 122.55C104.721 121.981 105.491 121.696 106.434 121.696C107.395 121.696 108.156 121.962 108.716 122.494C109.285 123.026 109.57 123.759 109.57 124.692C109.57 125.467 109.337 126.223 108.87 126.96C108.413 127.688 107.89 128.332 107.302 128.892C106.714 129.443 105.963 130.087 105.048 130.824H109.864V131.888H103.13V130.978ZM111.183 130.978C112.368 130.026 113.297 129.247 113.969 128.64C114.641 128.024 115.205 127.385 115.663 126.722C116.129 126.05 116.363 125.392 116.363 124.748C116.363 124.141 116.213 123.665 115.915 123.32C115.625 122.965 115.154 122.788 114.501 122.788C113.866 122.788 113.371 122.989 113.017 123.39C112.671 123.782 112.485 124.309 112.457 124.972H111.225C111.262 123.927 111.579 123.119 112.177 122.55C112.774 121.981 113.544 121.696 114.487 121.696C115.448 121.696 116.209 121.962 116.769 122.494C117.338 123.026 117.623 123.759 117.623 124.692C117.623 125.467 117.389 126.223 116.923 126.96C116.465 127.688 115.943 128.332 115.355 128.892C114.767 129.443 114.015 130.087 113.101 130.824H117.917V131.888H111.183V130.978ZM128.652 126.33V127.408H123.066V126.33H128.652ZM141.299 125.098C141.299 125.91 141.019 126.587 140.459 127.128C139.909 127.66 139.064 127.926 137.925 127.926H136.049V132H134.775V122.242H137.925C139.027 122.242 139.862 122.508 140.431 123.04C141.01 123.572 141.299 124.258 141.299 125.098ZM137.925 126.876C138.635 126.876 139.157 126.722 139.493 126.414C139.829 126.106 139.997 125.667 139.997 125.098C139.997 123.894 139.307 123.292 137.925 123.292H136.049V126.876H137.925ZM144.157 125.574C144.381 125.135 144.698 124.795 145.109 124.552C145.529 124.309 146.037 124.188 146.635 124.188V125.504H146.299C144.871 125.504 144.157 126.279 144.157 127.828V132H142.883V124.328H144.157V125.574ZM155.105 127.87C155.105 128.113 155.091 128.369 155.063 128.64H148.931C148.978 129.396 149.235 129.989 149.701 130.418C150.177 130.838 150.751 131.048 151.423 131.048C151.974 131.048 152.431 130.922 152.795 130.67C153.169 130.409 153.43 130.063 153.579 129.634H154.951C154.746 130.371 154.335 130.973 153.719 131.44C153.103 131.897 152.338 132.126 151.423 132.126C150.695 132.126 150.042 131.963 149.463 131.636C148.894 131.309 148.446 130.847 148.119 130.25C147.793 129.643 147.629 128.943 147.629 128.15C147.629 127.357 147.788 126.661 148.105 126.064C148.423 125.467 148.866 125.009 149.435 124.692C150.014 124.365 150.677 124.202 151.423 124.202C152.151 124.202 152.795 124.361 153.355 124.678C153.915 124.995 154.345 125.434 154.643 125.994C154.951 126.545 155.105 127.17 155.105 127.87ZM153.789 127.604C153.789 127.119 153.682 126.703 153.467 126.358C153.253 126.003 152.959 125.737 152.585 125.56C152.221 125.373 151.815 125.28 151.367 125.28C150.723 125.28 150.173 125.485 149.715 125.896C149.267 126.307 149.011 126.876 148.945 127.604H153.789ZM159.503 132.126C158.915 132.126 158.388 132.028 157.921 131.832C157.454 131.627 157.086 131.347 156.815 130.992C156.544 130.628 156.395 130.213 156.367 129.746H157.683C157.72 130.129 157.898 130.441 158.215 130.684C158.542 130.927 158.966 131.048 159.489 131.048C159.974 131.048 160.357 130.941 160.637 130.726C160.917 130.511 161.057 130.241 161.057 129.914C161.057 129.578 160.908 129.331 160.609 129.172C160.31 129.004 159.848 128.841 159.223 128.682C158.654 128.533 158.187 128.383 157.823 128.234C157.468 128.075 157.16 127.847 156.899 127.548C156.647 127.24 156.521 126.839 156.521 126.344C156.521 125.952 156.638 125.593 156.871 125.266C157.104 124.939 157.436 124.683 157.865 124.496C158.294 124.3 158.784 124.202 159.335 124.202C160.184 124.202 160.87 124.417 161.393 124.846C161.916 125.275 162.196 125.863 162.233 126.61H160.959C160.931 126.209 160.768 125.887 160.469 125.644C160.18 125.401 159.788 125.28 159.293 125.28C158.836 125.28 158.472 125.378 158.201 125.574C157.93 125.77 157.795 126.027 157.795 126.344C157.795 126.596 157.874 126.806 158.033 126.974C158.201 127.133 158.406 127.263 158.649 127.366C158.901 127.459 159.246 127.567 159.685 127.688C160.236 127.837 160.684 127.987 161.029 128.136C161.374 128.276 161.668 128.491 161.911 128.78C162.163 129.069 162.294 129.447 162.303 129.914C162.303 130.334 162.186 130.712 161.953 131.048C161.72 131.384 161.388 131.65 160.959 131.846C160.539 132.033 160.054 132.126 159.503 132.126ZM171.101 127.87C171.101 128.113 171.087 128.369 171.059 128.64H164.927C164.974 129.396 165.231 129.989 165.697 130.418C166.173 130.838 166.747 131.048 167.419 131.048C167.97 131.048 168.427 130.922 168.791 130.67C169.165 130.409 169.426 130.063 169.575 129.634H170.947C170.742 130.371 170.331 130.973 169.715 131.44C169.099 131.897 168.334 132.126 167.419 132.126C166.691 132.126 166.038 131.963 165.459 131.636C164.89 131.309 164.442 130.847 164.115 130.25C163.789 129.643 163.625 128.943 163.625 128.15C163.625 127.357 163.784 126.661 164.101 126.064C164.419 125.467 164.862 125.009 165.431 124.692C166.01 124.365 166.673 124.202 167.419 124.202C168.147 124.202 168.791 124.361 169.351 124.678C169.911 124.995 170.341 125.434 170.639 125.994C170.947 126.545 171.101 127.17 171.101 127.87ZM169.785 127.604C169.785 127.119 169.678 126.703 169.463 126.358C169.249 126.003 168.955 125.737 168.581 125.56C168.217 125.373 167.811 125.28 167.363 125.28C166.719 125.28 166.169 125.485 165.711 125.896C165.263 126.307 165.007 126.876 164.941 127.604H169.785ZM176.521 124.188C177.454 124.188 178.21 124.473 178.789 125.042C179.368 125.602 179.657 126.414 179.657 127.478V132H178.397V127.66C178.397 126.895 178.206 126.311 177.823 125.91C177.44 125.499 176.918 125.294 176.255 125.294C175.583 125.294 175.046 125.504 174.645 125.924C174.253 126.344 174.057 126.955 174.057 127.758V132H172.783V124.328H174.057V125.42C174.309 125.028 174.65 124.725 175.079 124.51C175.518 124.295 175.998 124.188 176.521 124.188ZM183.292 125.378V129.9C183.292 130.273 183.371 130.539 183.53 130.698C183.689 130.847 183.964 130.922 184.356 130.922H185.294V132H184.146C183.437 132 182.905 131.837 182.55 131.51C182.195 131.183 182.018 130.647 182.018 129.9V125.378H181.024V124.328H182.018V122.396H183.292V124.328H185.294V125.378H183.292Z"
                        fill="black" />
                    <path
                        d="M223.6 107.96V116.36C223.6 117.2 223.807 117.847 224.22 118.3C224.633 118.753 225.24 118.98 226.04 118.98C226.84 118.98 227.453 118.753 227.88 118.3C228.307 117.847 228.52 117.2 228.52 116.36V107.96H231.94V116.34C231.94 117.593 231.673 118.653 231.14 119.52C230.607 120.387 229.887 121.04 228.98 121.48C228.087 121.92 227.087 122.14 225.98 122.14C224.873 122.14 223.88 121.927 223 121.5C222.133 121.06 221.447 120.407 220.94 119.54C220.433 118.66 220.18 117.593 220.18 116.34V107.96H223.6ZM237.762 107.96V122H234.342V107.96H237.762ZM252.098 103L246.738 125.74H243.438L248.798 103H252.098ZM261.139 107.96V116.36C261.139 117.2 261.346 117.847 261.759 118.3C262.172 118.753 262.779 118.98 263.579 118.98C264.379 118.98 264.992 118.753 265.419 118.3C265.846 117.847 266.059 117.2 266.059 116.36V107.96H269.479V116.34C269.479 117.593 269.212 118.653 268.679 119.52C268.146 120.387 267.426 121.04 266.519 121.48C265.626 121.92 264.626 122.14 263.519 122.14C262.412 122.14 261.419 121.927 260.539 121.5C259.672 121.06 258.986 120.407 258.479 119.54C257.972 118.66 257.719 117.593 257.719 116.34V107.96H261.139ZM280.481 122L277.621 117.7L275.101 122H271.221L275.721 114.86L271.121 107.96H275.101L277.921 112.2L280.401 107.96H284.281L279.821 115.04L284.461 122H280.481ZM295.676 107.96C297.156 107.96 298.449 108.253 299.556 108.84C300.662 109.427 301.516 110.253 302.116 111.32C302.729 112.373 303.036 113.593 303.036 114.98C303.036 116.353 302.729 117.573 302.116 118.64C301.516 119.707 300.656 120.533 299.536 121.12C298.429 121.707 297.142 122 295.676 122H290.416V107.96H295.676ZM295.456 119.04C296.749 119.04 297.756 118.687 298.476 117.98C299.196 117.273 299.556 116.273 299.556 114.98C299.556 113.687 299.196 112.68 298.476 111.96C297.756 111.24 296.749 110.88 295.456 110.88H293.836V119.04H295.456ZM315.467 116.24C315.467 116.56 315.447 116.893 315.407 117.24H307.667C307.72 117.933 307.94 118.467 308.327 118.84C308.727 119.2 309.214 119.38 309.787 119.38C310.64 119.38 311.234 119.02 311.567 118.3H315.207C315.02 119.033 314.68 119.693 314.187 120.28C313.707 120.867 313.1 121.327 312.367 121.66C311.634 121.993 310.814 122.16 309.907 122.16C308.814 122.16 307.84 121.927 306.987 121.46C306.134 120.993 305.467 120.327 304.987 119.46C304.507 118.593 304.267 117.58 304.267 116.42C304.267 115.26 304.5 114.247 304.967 113.38C305.447 112.513 306.114 111.847 306.967 111.38C307.82 110.913 308.8 110.68 309.907 110.68C310.987 110.68 311.947 110.907 312.787 111.36C313.627 111.813 314.28 112.46 314.747 113.3C315.227 114.14 315.467 115.12 315.467 116.24ZM311.967 115.34C311.967 114.753 311.767 114.287 311.367 113.94C310.967 113.593 310.467 113.42 309.867 113.42C309.294 113.42 308.807 113.587 308.407 113.92C308.02 114.253 307.78 114.727 307.687 115.34H311.967ZM321.811 122.16C320.838 122.16 319.971 121.993 319.211 121.66C318.451 121.327 317.851 120.873 317.411 120.3C316.971 119.713 316.725 119.06 316.671 118.34H320.051C320.091 118.727 320.271 119.04 320.591 119.28C320.911 119.52 321.305 119.64 321.771 119.64C322.198 119.64 322.525 119.56 322.751 119.4C322.991 119.227 323.111 119.007 323.111 118.74C323.111 118.42 322.945 118.187 322.611 118.04C322.278 117.88 321.738 117.707 320.991 117.52C320.191 117.333 319.525 117.14 318.991 116.94C318.458 116.727 317.998 116.4 317.611 115.96C317.225 115.507 317.031 114.9 317.031 114.14C317.031 113.5 317.205 112.92 317.551 112.4C317.911 111.867 318.431 111.447 319.111 111.14C319.805 110.833 320.625 110.68 321.571 110.68C322.971 110.68 324.071 111.027 324.871 111.72C325.685 112.413 326.151 113.333 326.271 114.48H323.111C323.058 114.093 322.885 113.787 322.591 113.56C322.311 113.333 321.938 113.22 321.471 113.22C321.071 113.22 320.765 113.3 320.551 113.46C320.338 113.607 320.231 113.813 320.231 114.08C320.231 114.4 320.398 114.64 320.731 114.8C321.078 114.96 321.611 115.12 322.331 115.28C323.158 115.493 323.831 115.707 324.351 115.92C324.871 116.12 325.325 116.453 325.711 116.92C326.111 117.373 326.318 117.987 326.331 118.76C326.331 119.413 326.145 120 325.771 120.52C325.411 121.027 324.885 121.427 324.191 121.72C323.511 122.013 322.718 122.16 321.811 122.16ZM330.144 109.68C329.544 109.68 329.05 109.507 328.664 109.16C328.29 108.8 328.104 108.36 328.104 107.84C328.104 107.307 328.29 106.867 328.664 106.52C329.05 106.16 329.544 105.98 330.144 105.98C330.73 105.98 331.21 106.16 331.584 106.52C331.97 106.867 332.164 107.307 332.164 107.84C332.164 108.36 331.97 108.8 331.584 109.16C331.21 109.507 330.73 109.68 330.144 109.68ZM331.844 110.84V122H328.424V110.84H331.844ZM338.562 110.68C339.349 110.68 340.035 110.84 340.622 111.16C341.222 111.48 341.682 111.9 342.002 112.42V110.84H345.422V121.98C345.422 123.007 345.215 123.933 344.802 124.76C344.402 125.6 343.782 126.267 342.942 126.76C342.115 127.253 341.082 127.5 339.842 127.5C338.189 127.5 336.849 127.107 335.822 126.32C334.795 125.547 334.209 124.493 334.062 123.16H337.442C337.549 123.587 337.802 123.92 338.202 124.16C338.602 124.413 339.095 124.54 339.682 124.54C340.389 124.54 340.949 124.333 341.362 123.92C341.789 123.52 342.002 122.873 342.002 121.98V120.4C341.669 120.92 341.209 121.347 340.622 121.68C340.035 122 339.349 122.16 338.562 122.16C337.642 122.16 336.809 121.927 336.062 121.46C335.315 120.98 334.722 120.307 334.282 119.44C333.855 118.56 333.642 117.547 333.642 116.4C333.642 115.253 333.855 114.247 334.282 113.38C334.722 112.513 335.315 111.847 336.062 111.38C336.809 110.913 337.642 110.68 338.562 110.68ZM342.002 116.42C342.002 115.567 341.762 114.893 341.282 114.4C340.815 113.907 340.242 113.66 339.562 113.66C338.882 113.66 338.302 113.907 337.822 114.4C337.355 114.88 337.122 115.547 337.122 116.4C337.122 117.253 337.355 117.933 337.822 118.44C338.302 118.933 338.882 119.18 339.562 119.18C340.242 119.18 340.815 118.933 341.282 118.44C341.762 117.947 342.002 117.273 342.002 116.42ZM354.696 110.72C356.003 110.72 357.043 111.147 357.816 112C358.603 112.84 358.996 114 358.996 115.48V122H355.596V115.94C355.596 115.193 355.403 114.613 355.016 114.2C354.63 113.787 354.11 113.58 353.456 113.58C352.803 113.58 352.283 113.787 351.896 114.2C351.51 114.613 351.316 115.193 351.316 115.94V122H347.896V110.84H351.316V112.32C351.663 111.827 352.13 111.44 352.716 111.16C353.303 110.867 353.963 110.72 354.696 110.72ZM371.893 116.24C371.893 116.56 371.873 116.893 371.833 117.24H364.093C364.146 117.933 364.366 118.467 364.753 118.84C365.153 119.2 365.639 119.38 366.213 119.38C367.066 119.38 367.659 119.02 367.993 118.3H371.633C371.446 119.033 371.106 119.693 370.613 120.28C370.133 120.867 369.526 121.327 368.793 121.66C368.059 121.993 367.239 122.16 366.333 122.16C365.239 122.16 364.266 121.927 363.413 121.46C362.559 120.993 361.893 120.327 361.413 119.46C360.933 118.593 360.693 117.58 360.693 116.42C360.693 115.26 360.926 114.247 361.393 113.38C361.873 112.513 362.539 111.847 363.393 111.38C364.246 110.913 365.226 110.68 366.333 110.68C367.413 110.68 368.373 110.907 369.213 111.36C370.053 111.813 370.706 112.46 371.173 113.3C371.653 114.14 371.893 115.12 371.893 116.24ZM368.393 115.34C368.393 114.753 368.193 114.287 367.793 113.94C367.393 113.593 366.893 113.42 366.293 113.42C365.719 113.42 365.233 113.587 364.833 113.92C364.446 114.253 364.206 114.727 364.113 115.34H368.393ZM377.117 112.7C377.517 112.087 378.017 111.607 378.617 111.26C379.217 110.9 379.884 110.72 380.617 110.72V114.34H379.677C378.824 114.34 378.184 114.527 377.757 114.9C377.33 115.26 377.117 115.9 377.117 116.82V122H373.697V110.84H377.117V112.7Z"
                        fill="black" />
                    <path
                        d="M225.818 149L223.704 145.71L221.786 149H219.574L222.654 144.072L219.532 139.228H221.786L223.9 142.504L225.804 139.228H228.016L224.95 144.142L228.072 149H225.818ZM236.774 144.954C236.774 145.234 236.755 145.486 236.718 145.71H231.048C231.094 146.27 231.29 146.709 231.636 147.026C231.981 147.343 232.406 147.502 232.91 147.502C233.638 147.502 234.156 147.189 234.464 146.564H236.578C236.354 147.311 235.924 147.927 235.29 148.412C234.655 148.888 233.876 149.126 232.952 149.126C232.205 149.126 231.533 148.963 230.936 148.636C230.348 148.3 229.886 147.829 229.55 147.222C229.223 146.615 229.06 145.915 229.06 145.122C229.06 144.319 229.223 143.615 229.55 143.008C229.876 142.401 230.334 141.935 230.922 141.608C231.51 141.281 232.186 141.118 232.952 141.118C233.689 141.118 234.347 141.277 234.926 141.594C235.514 141.911 235.966 142.364 236.284 142.952C236.61 143.531 236.774 144.198 236.774 144.954ZM234.744 144.394C234.734 143.89 234.552 143.489 234.198 143.19C233.843 142.882 233.409 142.728 232.896 142.728C232.41 142.728 232 142.877 231.664 143.176C231.337 143.465 231.136 143.871 231.062 144.394H234.744ZM240.486 142.854V146.606C240.486 146.867 240.547 147.059 240.668 147.18C240.799 147.292 241.014 147.348 241.312 147.348H242.222V149H240.99C239.338 149 238.512 148.197 238.512 146.592V142.854H237.588V141.244H238.512V139.326H240.486V141.244H242.222V142.854H240.486ZM247.076 149.126C246.329 149.126 245.657 148.963 245.06 148.636C244.463 148.3 243.991 147.829 243.646 147.222C243.31 146.615 243.142 145.915 243.142 145.122C243.142 144.329 243.315 143.629 243.66 143.022C244.015 142.415 244.495 141.949 245.102 141.622C245.709 141.286 246.385 141.118 247.132 141.118C247.879 141.118 248.555 141.286 249.162 141.622C249.769 141.949 250.245 142.415 250.59 143.022C250.945 143.629 251.122 144.329 251.122 145.122C251.122 145.915 250.94 146.615 250.576 147.222C250.221 147.829 249.736 148.3 249.12 148.636C248.513 148.963 247.832 149.126 247.076 149.126ZM247.076 147.418C247.431 147.418 247.762 147.334 248.07 147.166C248.387 146.989 248.639 146.727 248.826 146.382C249.013 146.037 249.106 145.617 249.106 145.122C249.106 144.385 248.91 143.82 248.518 143.428C248.135 143.027 247.664 142.826 247.104 142.826C246.544 142.826 246.073 143.027 245.69 143.428C245.317 143.82 245.13 144.385 245.13 145.122C245.13 145.859 245.312 146.429 245.676 146.83C246.049 147.222 246.516 147.418 247.076 147.418ZM255.794 147.194L257.754 141.244H259.84L256.97 149H254.59L251.734 141.244H253.834L255.794 147.194ZM260.437 145.094C260.437 144.31 260.591 143.615 260.899 143.008C261.216 142.401 261.641 141.935 262.173 141.608C262.714 141.281 263.316 141.118 263.979 141.118C264.557 141.118 265.061 141.235 265.491 141.468C265.929 141.701 266.279 141.995 266.541 142.35V141.244H268.515V149H266.541V147.866C266.289 148.23 265.939 148.533 265.491 148.776C265.052 149.009 264.543 149.126 263.965 149.126C263.311 149.126 262.714 148.958 262.173 148.622C261.641 148.286 261.216 147.815 260.899 147.208C260.591 146.592 260.437 145.887 260.437 145.094ZM266.541 145.122C266.541 144.646 266.447 144.24 266.261 143.904C266.074 143.559 265.822 143.297 265.505 143.12C265.187 142.933 264.847 142.84 264.483 142.84C264.119 142.84 263.783 142.929 263.475 143.106C263.167 143.283 262.915 143.545 262.719 143.89C262.532 144.226 262.439 144.627 262.439 145.094C262.439 145.561 262.532 145.971 262.719 146.326C262.915 146.671 263.167 146.937 263.475 147.124C263.792 147.311 264.128 147.404 264.483 147.404C264.847 147.404 265.187 147.315 265.505 147.138C265.822 146.951 266.074 146.69 266.261 146.354C266.447 146.009 266.541 145.598 266.541 145.122Z"
                        fill="#4F4F4F" />
                    <path
                        d="M61.992 312.242V319.452C61.992 320.255 61.7447 320.899 61.25 321.384C60.7553 321.86 60.102 322.098 59.29 322.098C58.4687 322.098 57.8107 321.855 57.316 321.37C56.8213 320.875 56.574 320.203 56.574 319.354H57.848C57.8573 319.83 57.9787 320.217 58.212 320.516C58.4547 320.815 58.814 320.964 59.29 320.964C59.766 320.964 60.1207 320.824 60.354 320.544C60.5873 320.255 60.704 319.891 60.704 319.452V312.242H61.992ZM71.3058 314.328V322H70.0318V320.866C69.7892 321.258 69.4485 321.566 69.0098 321.79C68.5805 322.005 68.1045 322.112 67.5818 322.112C66.9845 322.112 66.4478 321.991 65.9718 321.748C65.4958 321.496 65.1178 321.123 64.8378 320.628C64.5672 320.133 64.4318 319.531 64.4318 318.822V314.328H65.6918V318.654C65.6918 319.41 65.8832 319.993 66.2658 320.404C66.6485 320.805 67.1712 321.006 67.8338 321.006C68.5152 321.006 69.0518 320.796 69.4438 320.376C69.8358 319.956 70.0318 319.345 70.0318 318.542V314.328H71.3058ZM74.7309 311.64V322H73.4569V311.64H74.7309ZM83.5102 314.328L78.8902 325.612H77.5742L79.0862 321.916L75.9922 314.328H77.4062L79.8142 320.544L82.1942 314.328H83.5102ZM88.1593 320.978C89.3446 320.026 90.2733 319.247 90.9453 318.64C91.6173 318.024 92.182 317.385 92.6393 316.722C93.106 316.05 93.3393 315.392 93.3393 314.748C93.3393 314.141 93.19 313.665 92.8913 313.32C92.602 312.965 92.1306 312.788 91.4773 312.788C90.8426 312.788 90.348 312.989 89.9933 313.39C89.648 313.782 89.4613 314.309 89.4333 314.972H88.2013C88.2386 313.927 88.556 313.119 89.1533 312.55C89.7506 311.981 90.5206 311.696 91.4633 311.696C92.4246 311.696 93.1853 311.962 93.7453 312.494C94.3146 313.026 94.5993 313.759 94.5993 314.692C94.5993 315.467 94.366 316.223 93.8993 316.96C93.442 317.688 92.9193 318.332 92.3313 318.892C91.7433 319.443 90.992 320.087 90.0773 320.824H94.8933V321.888H88.1593V320.978ZM96.366 316.834C96.366 315.229 96.6274 313.978 97.15 313.082C97.6727 312.177 98.5874 311.724 99.894 311.724C101.191 311.724 102.101 312.177 102.624 313.082C103.147 313.978 103.408 315.229 103.408 316.834C103.408 318.467 103.147 319.737 102.624 320.642C102.101 321.547 101.191 322 99.894 322C98.5874 322 97.6727 321.547 97.15 320.642C96.6274 319.737 96.366 318.467 96.366 316.834ZM102.148 316.834C102.148 316.022 102.092 315.336 101.98 314.776C101.877 314.207 101.658 313.749 101.322 313.404C100.995 313.059 100.519 312.886 99.894 312.886C99.2594 312.886 98.774 313.059 98.438 313.404C98.1114 313.749 97.892 314.207 97.78 314.776C97.6774 315.336 97.626 316.022 97.626 316.834C97.626 317.674 97.6774 318.379 97.78 318.948C97.892 319.517 98.1114 319.975 98.438 320.32C98.774 320.665 99.2594 320.838 99.894 320.838C100.519 320.838 100.995 320.665 101.322 320.32C101.658 319.975 101.877 319.517 101.98 318.948C102.092 318.379 102.148 317.674 102.148 316.834ZM104.821 313.04V311.878H107.453V322H106.165V313.04H104.821ZM111.279 319.284C111.373 319.816 111.587 320.227 111.923 320.516C112.269 320.805 112.731 320.95 113.309 320.95C114.084 320.95 114.653 320.647 115.017 320.04C115.391 319.433 115.568 318.411 115.549 316.974C115.353 317.394 115.027 317.725 114.569 317.968C114.112 318.201 113.603 318.318 113.043 318.318C112.418 318.318 111.858 318.192 111.363 317.94C110.878 317.679 110.495 317.301 110.215 316.806C109.935 316.311 109.795 315.714 109.795 315.014C109.795 314.015 110.085 313.213 110.663 312.606C111.242 311.99 112.063 311.682 113.127 311.682C114.434 311.682 115.349 312.107 115.871 312.956C116.403 313.805 116.669 315.07 116.669 316.75C116.669 317.926 116.562 318.897 116.347 319.662C116.142 320.427 115.787 321.011 115.283 321.412C114.789 321.813 114.107 322.014 113.239 322.014C112.287 322.014 111.545 321.757 111.013 321.244C110.481 320.731 110.178 320.077 110.103 319.284H111.279ZM113.253 317.24C113.879 317.24 114.392 317.049 114.793 316.666C115.195 316.274 115.395 315.747 115.395 315.084C115.395 314.384 115.199 313.819 114.807 313.39C114.415 312.961 113.865 312.746 113.155 312.746C112.502 312.746 111.979 312.951 111.587 313.362C111.205 313.773 111.013 314.314 111.013 314.986C111.013 315.667 111.205 316.213 111.587 316.624C111.97 317.035 112.525 317.24 113.253 317.24ZM127.722 316.33V317.408H122.136V316.33H127.722ZM138.76 312.242V319.452C138.76 320.255 138.512 320.899 138.018 321.384C137.523 321.86 136.87 322.098 136.058 322.098C135.236 322.098 134.578 321.855 134.084 321.37C133.589 320.875 133.342 320.203 133.342 319.354H134.616C134.625 319.83 134.746 320.217 134.98 320.516C135.222 320.815 135.582 320.964 136.058 320.964C136.534 320.964 136.888 320.824 137.122 320.544C137.355 320.255 137.472 319.891 137.472 319.452V312.242H138.76ZM140.793 318.136C140.793 317.352 140.952 316.666 141.269 316.078C141.587 315.481 142.021 315.019 142.571 314.692C143.131 314.365 143.752 314.202 144.433 314.202C145.105 314.202 145.689 314.347 146.183 314.636C146.678 314.925 147.047 315.289 147.289 315.728V314.328H148.577V322H147.289V320.572C147.037 321.02 146.659 321.393 146.155 321.692C145.661 321.981 145.082 322.126 144.419 322.126C143.738 322.126 143.122 321.958 142.571 321.622C142.021 321.286 141.587 320.815 141.269 320.208C140.952 319.601 140.793 318.911 140.793 318.136ZM147.289 318.15C147.289 317.571 147.173 317.067 146.939 316.638C146.706 316.209 146.389 315.882 145.987 315.658C145.595 315.425 145.161 315.308 144.685 315.308C144.209 315.308 143.775 315.42 143.383 315.644C142.991 315.868 142.679 316.195 142.445 316.624C142.212 317.053 142.095 317.557 142.095 318.136C142.095 318.724 142.212 319.237 142.445 319.676C142.679 320.105 142.991 320.437 143.383 320.67C143.775 320.894 144.209 321.006 144.685 321.006C145.161 321.006 145.595 320.894 145.987 320.67C146.389 320.437 146.706 320.105 146.939 319.676C147.173 319.237 147.289 318.729 147.289 318.15ZM154.468 314.188C155.402 314.188 156.158 314.473 156.736 315.042C157.315 315.602 157.604 316.414 157.604 317.478V322H156.344V317.66C156.344 316.895 156.153 316.311 155.77 315.91C155.388 315.499 154.865 315.294 154.202 315.294C153.53 315.294 152.994 315.504 152.592 315.924C152.2 316.344 152.004 316.955 152.004 317.758V322H150.73V314.328H152.004V315.42C152.256 315.028 152.597 314.725 153.026 314.51C153.465 314.295 153.946 314.188 154.468 314.188ZM163.054 320.978C164.239 320.026 165.168 319.247 165.84 318.64C166.512 318.024 167.077 317.385 167.534 316.722C168.001 316.05 168.234 315.392 168.234 314.748C168.234 314.141 168.085 313.665 167.786 313.32C167.497 312.965 167.025 312.788 166.372 312.788C165.737 312.788 165.243 312.989 164.888 313.39C164.543 313.782 164.356 314.309 164.328 314.972H163.096C163.133 313.927 163.451 313.119 164.048 312.55C164.645 311.981 165.415 311.696 166.358 311.696C167.319 311.696 168.08 311.962 168.64 312.494C169.209 313.026 169.494 313.759 169.494 314.692C169.494 315.467 169.261 316.223 168.794 316.96C168.337 317.688 167.814 318.332 167.226 318.892C166.638 319.443 165.887 320.087 164.972 320.824H169.788V321.888H163.054V320.978ZM171.261 316.834C171.261 315.229 171.522 313.978 172.045 313.082C172.567 312.177 173.482 311.724 174.789 311.724C176.086 311.724 176.996 312.177 177.519 313.082C178.041 313.978 178.303 315.229 178.303 316.834C178.303 318.467 178.041 319.737 177.519 320.642C176.996 321.547 176.086 322 174.789 322C173.482 322 172.567 321.547 172.045 320.642C171.522 319.737 171.261 318.467 171.261 316.834ZM177.043 316.834C177.043 316.022 176.987 315.336 176.875 314.776C176.772 314.207 176.553 313.749 176.217 313.404C175.89 313.059 175.414 312.886 174.789 312.886C174.154 312.886 173.669 313.059 173.333 313.404C173.006 313.749 172.787 314.207 172.675 314.776C172.572 315.336 172.521 316.022 172.521 316.834C172.521 317.674 172.572 318.379 172.675 318.948C172.787 319.517 173.006 319.975 173.333 320.32C173.669 320.665 174.154 320.838 174.789 320.838C175.414 320.838 175.89 320.665 176.217 320.32C176.553 319.975 176.772 319.517 176.875 318.948C176.987 318.379 177.043 317.674 177.043 316.834ZM179.898 320.978C181.083 320.026 182.012 319.247 182.684 318.64C183.356 318.024 183.92 317.385 184.378 316.722C184.844 316.05 185.078 315.392 185.078 314.748C185.078 314.141 184.928 313.665 184.63 313.32C184.34 312.965 183.869 312.788 183.216 312.788C182.581 312.788 182.086 312.989 181.732 313.39C181.386 313.782 181.2 314.309 181.172 314.972H179.94C179.977 313.927 180.294 313.119 180.892 312.55C181.489 311.981 182.259 311.696 183.202 311.696C184.163 311.696 184.924 311.962 185.484 312.494C186.053 313.026 186.338 313.759 186.338 314.692C186.338 315.467 186.104 316.223 185.638 316.96C185.18 317.688 184.658 318.332 184.07 318.892C183.482 319.443 182.73 320.087 181.816 320.824H186.632V321.888H179.898V320.978ZM187.95 320.978C189.136 320.026 190.064 319.247 190.736 318.64C191.408 318.024 191.973 317.385 192.43 316.722C192.897 316.05 193.13 315.392 193.13 314.748C193.13 314.141 192.981 313.665 192.682 313.32C192.393 312.965 191.922 312.788 191.268 312.788C190.634 312.788 190.139 312.989 189.784 313.39C189.439 313.782 189.252 314.309 189.224 314.972H187.992C188.03 313.927 188.347 313.119 188.944 312.55C189.542 311.981 190.312 311.696 191.254 311.696C192.216 311.696 192.976 311.962 193.536 312.494C194.106 313.026 194.39 313.759 194.39 314.692C194.39 315.467 194.157 316.223 193.69 316.96C193.233 317.688 192.71 318.332 192.122 318.892C191.534 319.443 190.783 320.087 189.868 320.824H194.684V321.888H187.95V320.978Z"
                        fill="black" />
                    <path
                        d="M223.6 297.96V306.36C223.6 307.2 223.807 307.847 224.22 308.3C224.633 308.753 225.24 308.98 226.04 308.98C226.84 308.98 227.453 308.753 227.88 308.3C228.307 307.847 228.52 307.2 228.52 306.36V297.96H231.94V306.34C231.94 307.593 231.673 308.653 231.14 309.52C230.607 310.387 229.887 311.04 228.98 311.48C228.087 311.92 227.087 312.14 225.98 312.14C224.873 312.14 223.88 311.927 223 311.5C222.133 311.06 221.447 310.407 220.94 309.54C220.433 308.66 220.18 307.593 220.18 306.34V297.96H223.6ZM237.762 297.96V312H234.342V297.96H237.762ZM252.098 293L246.738 315.74H243.438L248.798 293H252.098ZM261.139 297.96V306.36C261.139 307.2 261.346 307.847 261.759 308.3C262.172 308.753 262.779 308.98 263.579 308.98C264.379 308.98 264.992 308.753 265.419 308.3C265.846 307.847 266.059 307.2 266.059 306.36V297.96H269.479V306.34C269.479 307.593 269.212 308.653 268.679 309.52C268.146 310.387 267.426 311.04 266.519 311.48C265.626 311.92 264.626 312.14 263.519 312.14C262.412 312.14 261.419 311.927 260.539 311.5C259.672 311.06 258.986 310.407 258.479 309.54C257.972 308.66 257.719 307.593 257.719 306.34V297.96H261.139ZM280.481 312L277.621 307.7L275.101 312H271.221L275.721 304.86L271.121 297.96H275.101L277.921 302.2L280.401 297.96H284.281L279.821 305.04L284.461 312H280.481ZM295.676 297.96C297.156 297.96 298.449 298.253 299.556 298.84C300.662 299.427 301.516 300.253 302.116 301.32C302.729 302.373 303.036 303.593 303.036 304.98C303.036 306.353 302.729 307.573 302.116 308.64C301.516 309.707 300.656 310.533 299.536 311.12C298.429 311.707 297.142 312 295.676 312H290.416V297.96H295.676ZM295.456 309.04C296.749 309.04 297.756 308.687 298.476 307.98C299.196 307.273 299.556 306.273 299.556 304.98C299.556 303.687 299.196 302.68 298.476 301.96C297.756 301.24 296.749 300.88 295.456 300.88H293.836V309.04H295.456ZM315.467 306.24C315.467 306.56 315.447 306.893 315.407 307.24H307.667C307.72 307.933 307.94 308.467 308.327 308.84C308.727 309.2 309.214 309.38 309.787 309.38C310.64 309.38 311.234 309.02 311.567 308.3H315.207C315.02 309.033 314.68 309.693 314.187 310.28C313.707 310.867 313.1 311.327 312.367 311.66C311.634 311.993 310.814 312.16 309.907 312.16C308.814 312.16 307.84 311.927 306.987 311.46C306.134 310.993 305.467 310.327 304.987 309.46C304.507 308.593 304.267 307.58 304.267 306.42C304.267 305.26 304.5 304.247 304.967 303.38C305.447 302.513 306.114 301.847 306.967 301.38C307.82 300.913 308.8 300.68 309.907 300.68C310.987 300.68 311.947 300.907 312.787 301.36C313.627 301.813 314.28 302.46 314.747 303.3C315.227 304.14 315.467 305.12 315.467 306.24ZM311.967 305.34C311.967 304.753 311.767 304.287 311.367 303.94C310.967 303.593 310.467 303.42 309.867 303.42C309.294 303.42 308.807 303.587 308.407 303.92C308.02 304.253 307.78 304.727 307.687 305.34H311.967ZM321.811 312.16C320.838 312.16 319.971 311.993 319.211 311.66C318.451 311.327 317.851 310.873 317.411 310.3C316.971 309.713 316.725 309.06 316.671 308.34H320.051C320.091 308.727 320.271 309.04 320.591 309.28C320.911 309.52 321.305 309.64 321.771 309.64C322.198 309.64 322.525 309.56 322.751 309.4C322.991 309.227 323.111 309.007 323.111 308.74C323.111 308.42 322.945 308.187 322.611 308.04C322.278 307.88 321.738 307.707 320.991 307.52C320.191 307.333 319.525 307.14 318.991 306.94C318.458 306.727 317.998 306.4 317.611 305.96C317.225 305.507 317.031 304.9 317.031 304.14C317.031 303.5 317.205 302.92 317.551 302.4C317.911 301.867 318.431 301.447 319.111 301.14C319.805 300.833 320.625 300.68 321.571 300.68C322.971 300.68 324.071 301.027 324.871 301.72C325.685 302.413 326.151 303.333 326.271 304.48H323.111C323.058 304.093 322.885 303.787 322.591 303.56C322.311 303.333 321.938 303.22 321.471 303.22C321.071 303.22 320.765 303.3 320.551 303.46C320.338 303.607 320.231 303.813 320.231 304.08C320.231 304.4 320.398 304.64 320.731 304.8C321.078 304.96 321.611 305.12 322.331 305.28C323.158 305.493 323.831 305.707 324.351 305.92C324.871 306.12 325.325 306.453 325.711 306.92C326.111 307.373 326.318 307.987 326.331 308.76C326.331 309.413 326.145 310 325.771 310.52C325.411 311.027 324.885 311.427 324.191 311.72C323.511 312.013 322.718 312.16 321.811 312.16ZM330.144 299.68C329.544 299.68 329.05 299.507 328.664 299.16C328.29 298.8 328.104 298.36 328.104 297.84C328.104 297.307 328.29 296.867 328.664 296.52C329.05 296.16 329.544 295.98 330.144 295.98C330.73 295.98 331.21 296.16 331.584 296.52C331.97 296.867 332.164 297.307 332.164 297.84C332.164 298.36 331.97 298.8 331.584 299.16C331.21 299.507 330.73 299.68 330.144 299.68ZM331.844 300.84V312H328.424V300.84H331.844ZM338.562 300.68C339.349 300.68 340.035 300.84 340.622 301.16C341.222 301.48 341.682 301.9 342.002 302.42V300.84H345.422V311.98C345.422 313.007 345.215 313.933 344.802 314.76C344.402 315.6 343.782 316.267 342.942 316.76C342.115 317.253 341.082 317.5 339.842 317.5C338.189 317.5 336.849 317.107 335.822 316.32C334.795 315.547 334.209 314.493 334.062 313.16H337.442C337.549 313.587 337.802 313.92 338.202 314.16C338.602 314.413 339.095 314.54 339.682 314.54C340.389 314.54 340.949 314.333 341.362 313.92C341.789 313.52 342.002 312.873 342.002 311.98V310.4C341.669 310.92 341.209 311.347 340.622 311.68C340.035 312 339.349 312.16 338.562 312.16C337.642 312.16 336.809 311.927 336.062 311.46C335.315 310.98 334.722 310.307 334.282 309.44C333.855 308.56 333.642 307.547 333.642 306.4C333.642 305.253 333.855 304.247 334.282 303.38C334.722 302.513 335.315 301.847 336.062 301.38C336.809 300.913 337.642 300.68 338.562 300.68ZM342.002 306.42C342.002 305.567 341.762 304.893 341.282 304.4C340.815 303.907 340.242 303.66 339.562 303.66C338.882 303.66 338.302 303.907 337.822 304.4C337.355 304.88 337.122 305.547 337.122 306.4C337.122 307.253 337.355 307.933 337.822 308.44C338.302 308.933 338.882 309.18 339.562 309.18C340.242 309.18 340.815 308.933 341.282 308.44C341.762 307.947 342.002 307.273 342.002 306.42ZM354.696 300.72C356.003 300.72 357.043 301.147 357.816 302C358.603 302.84 358.996 304 358.996 305.48V312H355.596V305.94C355.596 305.193 355.403 304.613 355.016 304.2C354.63 303.787 354.11 303.58 353.456 303.58C352.803 303.58 352.283 303.787 351.896 304.2C351.51 304.613 351.316 305.193 351.316 305.94V312H347.896V300.84H351.316V302.32C351.663 301.827 352.13 301.44 352.716 301.16C353.303 300.867 353.963 300.72 354.696 300.72ZM371.893 306.24C371.893 306.56 371.873 306.893 371.833 307.24H364.093C364.146 307.933 364.366 308.467 364.753 308.84C365.153 309.2 365.639 309.38 366.213 309.38C367.066 309.38 367.659 309.02 367.993 308.3H371.633C371.446 309.033 371.106 309.693 370.613 310.28C370.133 310.867 369.526 311.327 368.793 311.66C368.059 311.993 367.239 312.16 366.333 312.16C365.239 312.16 364.266 311.927 363.413 311.46C362.559 310.993 361.893 310.327 361.413 309.46C360.933 308.593 360.693 307.58 360.693 306.42C360.693 305.26 360.926 304.247 361.393 303.38C361.873 302.513 362.539 301.847 363.393 301.38C364.246 300.913 365.226 300.68 366.333 300.68C367.413 300.68 368.373 300.907 369.213 301.36C370.053 301.813 370.706 302.46 371.173 303.3C371.653 304.14 371.893 305.12 371.893 306.24ZM368.393 305.34C368.393 304.753 368.193 304.287 367.793 303.94C367.393 303.593 366.893 303.42 366.293 303.42C365.719 303.42 365.233 303.587 364.833 303.92C364.446 304.253 364.206 304.727 364.113 305.34H368.393ZM377.117 302.7C377.517 302.087 378.017 301.607 378.617 301.26C379.217 300.9 379.884 300.72 380.617 300.72V304.34H379.677C378.824 304.34 378.184 304.527 377.757 304.9C377.33 305.26 377.117 305.9 377.117 306.82V312H373.697V300.84H377.117V302.7ZM397.23 312L395.93 310.74C394.637 311.727 393.09 312.22 391.29 312.22C390.21 312.22 389.27 312.047 388.47 311.7C387.67 311.34 387.05 310.84 386.61 310.2C386.183 309.547 385.97 308.787 385.97 307.92C385.97 307.04 386.203 306.247 386.67 305.54C387.15 304.82 387.863 304.233 388.81 303.78C388.463 303.353 388.217 302.947 388.07 302.56C387.923 302.16 387.85 301.727 387.85 301.26C387.85 300.593 388.023 299.987 388.37 299.44C388.717 298.893 389.217 298.467 389.87 298.16C390.537 297.84 391.323 297.68 392.23 297.68C393.15 297.68 393.93 297.847 394.57 298.18C395.21 298.513 395.69 298.96 396.01 299.52C396.33 300.08 396.477 300.693 396.45 301.36H393.23C393.243 301 393.15 300.727 392.95 300.54C392.763 300.34 392.51 300.24 392.19 300.24C391.87 300.24 391.603 300.333 391.39 300.52C391.177 300.707 391.07 300.947 391.07 301.24C391.07 301.52 391.157 301.813 391.33 302.12C391.517 302.427 391.803 302.78 392.19 303.18L395.61 306.52C395.637 306.453 395.67 306.373 395.71 306.28C395.763 306.187 395.817 306.08 395.87 305.96L396.61 304.7H400.03L399.07 306.44C398.71 307.227 398.297 307.973 397.83 308.68L401.21 312H397.23ZM391.45 309.46C392.343 309.46 393.137 309.207 393.83 308.7L390.71 305.68C389.75 306.173 389.27 306.84 389.27 307.68C389.27 308.187 389.463 308.613 389.85 308.96C390.25 309.293 390.783 309.46 391.45 309.46ZM415.825 297.96V300.7H410.105V303.66H414.385V306.32H410.105V312H406.685V297.96H415.825ZM428.643 300.84V312H425.223V310.48C424.876 310.973 424.403 311.373 423.803 311.68C423.216 311.973 422.563 312.12 421.843 312.12C420.989 312.12 420.236 311.933 419.583 311.56C418.929 311.173 418.423 310.62 418.063 309.9C417.703 309.18 417.523 308.333 417.523 307.36V300.84H420.923V306.9C420.923 307.647 421.116 308.227 421.503 308.64C421.889 309.053 422.409 309.26 423.063 309.26C423.729 309.26 424.256 309.053 424.643 308.64C425.029 308.227 425.223 307.647 425.223 306.9V300.84H428.643ZM434.519 297.2V312H431.099V297.2H434.519ZM440.418 297.2V312H436.998V297.2H440.418ZM451.496 303.56V306.4H442.696V303.56H451.496ZM459.578 312.14C458.551 312.14 457.631 311.973 456.818 311.64C456.004 311.307 455.351 310.813 454.858 310.16C454.378 309.507 454.124 308.72 454.098 307.8H457.738C457.791 308.32 457.971 308.72 458.278 309C458.584 309.267 458.984 309.4 459.478 309.4C459.984 309.4 460.384 309.287 460.678 309.06C460.971 308.82 461.118 308.493 461.118 308.08C461.118 307.733 460.998 307.447 460.758 307.22C460.531 306.993 460.244 306.807 459.898 306.66C459.564 306.513 459.084 306.347 458.458 306.16C457.551 305.88 456.811 305.6 456.238 305.32C455.664 305.04 455.171 304.627 454.758 304.08C454.344 303.533 454.138 302.82 454.138 301.94C454.138 300.633 454.611 299.613 455.558 298.88C456.504 298.133 457.738 297.76 459.258 297.76C460.804 297.76 462.051 298.133 462.998 298.88C463.944 299.613 464.451 300.64 464.518 301.96H460.818C460.791 301.507 460.624 301.153 460.318 300.9C460.011 300.633 459.618 300.5 459.138 300.5C458.724 300.5 458.391 300.613 458.138 300.84C457.884 301.053 457.758 301.367 457.758 301.78C457.758 302.233 457.971 302.587 458.398 302.84C458.824 303.093 459.491 303.367 460.398 303.66C461.304 303.967 462.038 304.26 462.598 304.54C463.171 304.82 463.664 305.227 464.078 305.76C464.491 306.293 464.698 306.98 464.698 307.82C464.698 308.62 464.491 309.347 464.078 310C463.678 310.653 463.091 311.173 462.318 311.56C461.544 311.947 460.631 312.14 459.578 312.14ZM473.023 309.1V312H471.283C470.043 312 469.076 311.7 468.383 311.1C467.689 310.487 467.343 309.493 467.343 308.12V303.68H465.983V300.84H467.343V298.12H470.763V300.84H473.003V303.68H470.763V308.16C470.763 308.493 470.843 308.733 471.003 308.88C471.163 309.027 471.429 309.1 471.803 309.1H473.023ZM474.248 306.4C474.248 305.253 474.461 304.247 474.888 303.38C475.328 302.513 475.921 301.847 476.668 301.38C477.414 300.913 478.248 300.68 479.168 300.68C479.954 300.68 480.641 300.84 481.228 301.16C481.828 301.48 482.288 301.9 482.608 302.42V300.84H486.028V312H482.608V310.42C482.274 310.94 481.808 311.36 481.208 311.68C480.621 312 479.934 312.16 479.148 312.16C478.241 312.16 477.414 311.927 476.668 311.46C475.921 310.98 475.328 310.307 474.888 309.44C474.461 308.56 474.248 307.547 474.248 306.4ZM482.608 306.42C482.608 305.567 482.368 304.893 481.888 304.4C481.421 303.907 480.848 303.66 480.168 303.66C479.488 303.66 478.908 303.907 478.428 304.4C477.961 304.88 477.728 305.547 477.728 306.4C477.728 307.253 477.961 307.933 478.428 308.44C478.908 308.933 479.488 309.18 480.168 309.18C480.848 309.18 481.421 308.933 481.888 308.44C482.368 307.947 482.608 307.273 482.608 306.42ZM487.822 306.42C487.822 305.26 488.055 304.247 488.522 303.38C489.002 302.513 489.662 301.847 490.502 301.38C491.355 300.913 492.328 300.68 493.422 300.68C494.822 300.68 495.988 301.047 496.922 301.78C497.868 302.513 498.488 303.547 498.782 304.88H495.142C494.835 304.027 494.242 303.6 493.362 303.6C492.735 303.6 492.235 303.847 491.862 304.34C491.488 304.82 491.302 305.513 491.302 306.42C491.302 307.327 491.488 308.027 491.862 308.52C492.235 309 492.735 309.24 493.362 309.24C494.242 309.24 494.835 308.813 495.142 307.96H498.782C498.488 309.267 497.868 310.293 496.922 311.04C495.975 311.787 494.808 312.16 493.422 312.16C492.328 312.16 491.355 311.927 490.502 311.46C489.662 310.993 489.002 310.327 488.522 309.46C488.055 308.593 487.822 307.58 487.822 306.42ZM507.431 312L504.031 307.32V312H500.611V297.2H504.031V305.38L507.411 300.84H511.631L506.991 306.44L511.671 312H507.431ZM522.473 297.96C523.953 297.96 525.246 298.253 526.353 298.84C527.459 299.427 528.313 300.253 528.913 301.32C529.526 302.373 529.833 303.593 529.833 304.98C529.833 306.353 529.526 307.573 528.913 308.64C528.313 309.707 527.453 310.533 526.333 311.12C525.226 311.707 523.939 312 522.473 312H517.213V297.96H522.473ZM522.253 309.04C523.546 309.04 524.553 308.687 525.273 307.98C525.993 307.273 526.353 306.273 526.353 304.98C526.353 303.687 525.993 302.68 525.273 301.96C524.553 301.24 523.546 300.88 522.253 300.88H520.633V309.04H522.253ZM542.264 306.24C542.264 306.56 542.244 306.893 542.204 307.24H534.464C534.517 307.933 534.737 308.467 535.124 308.84C535.524 309.2 536.011 309.38 536.584 309.38C537.437 309.38 538.031 309.02 538.364 308.3H542.004C541.817 309.033 541.477 309.693 540.984 310.28C540.504 310.867 539.897 311.327 539.164 311.66C538.431 311.993 537.611 312.16 536.704 312.16C535.611 312.16 534.637 311.927 533.784 311.46C532.931 310.993 532.264 310.327 531.784 309.46C531.304 308.593 531.064 307.58 531.064 306.42C531.064 305.26 531.297 304.247 531.764 303.38C532.244 302.513 532.911 301.847 533.764 301.38C534.617 300.913 535.597 300.68 536.704 300.68C537.784 300.68 538.744 300.907 539.584 301.36C540.424 301.813 541.077 302.46 541.544 303.3C542.024 304.14 542.264 305.12 542.264 306.24ZM538.764 305.34C538.764 304.753 538.564 304.287 538.164 303.94C537.764 303.593 537.264 303.42 536.664 303.42C536.091 303.42 535.604 303.587 535.204 303.92C534.817 304.253 534.577 304.727 534.484 305.34H538.764ZM549.088 308.8L551.508 300.84H555.148L551.188 312H546.968L543.008 300.84H546.668L549.088 308.8Z"
                        fill="black" />
                    <path
                        d="M233.028 329.228L230.298 339H227.988L226.154 332.042L224.236 339L221.94 339.014L219.308 329.228H221.408L223.13 336.816L225.118 329.228H227.302L229.178 336.774L230.914 329.228H233.028ZM235.302 330.32C234.956 330.32 234.667 330.213 234.434 329.998C234.21 329.774 234.098 329.499 234.098 329.172C234.098 328.845 234.21 328.575 234.434 328.36C234.667 328.136 234.956 328.024 235.302 328.024C235.647 328.024 235.932 328.136 236.156 328.36C236.389 328.575 236.506 328.845 236.506 329.172C236.506 329.499 236.389 329.774 236.156 329.998C235.932 330.213 235.647 330.32 235.302 330.32ZM236.268 331.244V339H234.308V331.244H236.268ZM241.172 339.126C240.538 339.126 239.968 339.014 239.464 338.79C238.96 338.557 238.559 338.244 238.26 337.852C237.971 337.46 237.812 337.026 237.784 336.55H239.758C239.796 336.849 239.94 337.096 240.192 337.292C240.454 337.488 240.776 337.586 241.158 337.586C241.532 337.586 241.821 337.511 242.026 337.362C242.241 337.213 242.348 337.021 242.348 336.788C242.348 336.536 242.218 336.349 241.956 336.228C241.704 336.097 241.298 335.957 240.738 335.808C240.16 335.668 239.684 335.523 239.31 335.374C238.946 335.225 238.629 334.996 238.358 334.688C238.097 334.38 237.966 333.965 237.966 333.442C237.966 333.013 238.088 332.621 238.33 332.266C238.582 331.911 238.937 331.631 239.394 331.426C239.861 331.221 240.407 331.118 241.032 331.118C241.956 331.118 242.694 331.351 243.244 331.818C243.795 332.275 244.098 332.896 244.154 333.68H242.278C242.25 333.372 242.12 333.129 241.886 332.952C241.662 332.765 241.359 332.672 240.976 332.672C240.622 332.672 240.346 332.737 240.15 332.868C239.964 332.999 239.87 333.181 239.87 333.414C239.87 333.675 240.001 333.876 240.262 334.016C240.524 334.147 240.93 334.282 241.48 334.422C242.04 334.562 242.502 334.707 242.866 334.856C243.23 335.005 243.543 335.239 243.804 335.556C244.075 335.864 244.215 336.275 244.224 336.788C244.224 337.236 244.098 337.637 243.846 337.992C243.604 338.347 243.249 338.627 242.782 338.832C242.325 339.028 241.788 339.126 241.172 339.126ZM253.043 334.954C253.043 335.234 253.025 335.486 252.987 335.71H247.317C247.364 336.27 247.56 336.709 247.905 337.026C248.251 337.343 248.675 337.502 249.179 337.502C249.907 337.502 250.425 337.189 250.733 336.564H252.847C252.623 337.311 252.194 337.927 251.559 338.412C250.925 338.888 250.145 339.126 249.221 339.126C248.475 339.126 247.803 338.963 247.205 338.636C246.617 338.3 246.155 337.829 245.819 337.222C245.493 336.615 245.329 335.915 245.329 335.122C245.329 334.319 245.493 333.615 245.819 333.008C246.146 332.401 246.603 331.935 247.191 331.608C247.779 331.281 248.456 331.118 249.221 331.118C249.959 331.118 250.617 331.277 251.195 331.594C251.783 331.911 252.236 332.364 252.553 332.952C252.88 333.531 253.043 334.198 253.043 334.954ZM251.013 334.394C251.004 333.89 250.822 333.489 250.467 333.19C250.113 332.882 249.679 332.728 249.165 332.728C248.68 332.728 248.269 332.877 247.933 333.176C247.607 333.465 247.406 333.871 247.331 334.394H251.013ZM257.306 335.094C257.306 334.31 257.46 333.615 257.768 333.008C258.085 332.401 258.51 331.935 259.042 331.608C259.583 331.281 260.185 331.118 260.848 331.118C261.426 331.118 261.93 331.235 262.36 331.468C262.798 331.701 263.148 331.995 263.41 332.35V331.244H265.384V339H263.41V337.866C263.158 338.23 262.808 338.533 262.36 338.776C261.921 339.009 261.412 339.126 260.834 339.126C260.18 339.126 259.583 338.958 259.042 338.622C258.51 338.286 258.085 337.815 257.768 337.208C257.46 336.592 257.306 335.887 257.306 335.094ZM263.41 335.122C263.41 334.646 263.316 334.24 263.13 333.904C262.943 333.559 262.691 333.297 262.374 333.12C262.056 332.933 261.716 332.84 261.352 332.84C260.988 332.84 260.652 332.929 260.344 333.106C260.036 333.283 259.784 333.545 259.588 333.89C259.401 334.226 259.308 334.627 259.308 335.094C259.308 335.561 259.401 335.971 259.588 336.326C259.784 336.671 260.036 336.937 260.344 337.124C260.661 337.311 260.997 337.404 261.352 337.404C261.716 337.404 262.056 337.315 262.374 337.138C262.691 336.951 262.943 336.69 263.13 336.354C263.316 336.009 263.41 335.598 263.41 335.122ZM271.596 331.132C272.52 331.132 273.267 331.426 273.836 332.014C274.405 332.593 274.69 333.405 274.69 334.45V339H272.73V334.716C272.73 334.1 272.576 333.629 272.268 333.302C271.96 332.966 271.54 332.798 271.008 332.798C270.467 332.798 270.037 332.966 269.72 333.302C269.412 333.629 269.258 334.1 269.258 334.716V339H267.298V331.244H269.258V332.21C269.519 331.874 269.851 331.613 270.252 331.426C270.663 331.23 271.111 331.132 271.596 331.132ZM276.05 335.094C276.05 334.31 276.204 333.615 276.512 333.008C276.829 332.401 277.259 331.935 277.8 331.608C278.341 331.281 278.943 331.118 279.606 331.118C280.11 331.118 280.591 331.23 281.048 331.454C281.505 331.669 281.869 331.958 282.14 332.322V328.64H284.128V339H282.14V337.852C281.897 338.235 281.557 338.543 281.118 338.776C280.679 339.009 280.171 339.126 279.592 339.126C278.939 339.126 278.341 338.958 277.8 338.622C277.259 338.286 276.829 337.815 276.512 337.208C276.204 336.592 276.05 335.887 276.05 335.094ZM282.154 335.122C282.154 334.646 282.061 334.24 281.874 333.904C281.687 333.559 281.435 333.297 281.118 333.12C280.801 332.933 280.46 332.84 280.096 332.84C279.732 332.84 279.396 332.929 279.088 333.106C278.78 333.283 278.528 333.545 278.332 333.89C278.145 334.226 278.052 334.627 278.052 335.094C278.052 335.561 278.145 335.971 278.332 336.326C278.528 336.671 278.78 336.937 279.088 337.124C279.405 337.311 279.741 337.404 280.096 337.404C280.46 337.404 280.801 337.315 281.118 337.138C281.435 336.951 281.687 336.69 281.874 336.354C282.061 336.009 282.154 335.598 282.154 335.122ZM295.37 337.138H291.478L290.834 339H288.776L292.29 329.214H294.572L298.086 339H296.014L295.37 337.138ZM294.838 335.57L293.424 331.482L292.01 335.57H294.838ZM302.438 331.118C303.016 331.118 303.525 331.235 303.964 331.468C304.402 331.692 304.748 331.986 305 332.35V331.244H306.974V339.056C306.974 339.775 306.829 340.414 306.54 340.974C306.25 341.543 305.816 341.991 305.238 342.318C304.659 342.654 303.959 342.822 303.138 342.822C302.036 342.822 301.131 342.565 300.422 342.052C299.722 341.539 299.325 340.839 299.232 339.952H301.178C301.28 340.307 301.5 340.587 301.836 340.792C302.181 341.007 302.596 341.114 303.082 341.114C303.651 341.114 304.113 340.941 304.468 340.596C304.822 340.26 305 339.747 305 339.056V337.852C304.748 338.216 304.398 338.519 303.95 338.762C303.511 339.005 303.007 339.126 302.438 339.126C301.784 339.126 301.187 338.958 300.646 338.622C300.104 338.286 299.675 337.815 299.358 337.208C299.05 336.592 298.896 335.887 298.896 335.094C298.896 334.31 299.05 333.615 299.358 333.008C299.675 332.401 300.1 331.935 300.632 331.608C301.173 331.281 301.775 331.118 302.438 331.118ZM305 335.122C305 334.646 304.906 334.24 304.72 333.904C304.533 333.559 304.281 333.297 303.964 333.12C303.646 332.933 303.306 332.84 302.942 332.84C302.578 332.84 302.242 332.929 301.934 333.106C301.626 333.283 301.374 333.545 301.178 333.89C300.991 334.226 300.898 334.627 300.898 335.094C300.898 335.561 300.991 335.971 301.178 336.326C301.374 336.671 301.626 336.937 301.934 337.124C302.251 337.311 302.587 337.404 302.942 337.404C303.306 337.404 303.646 337.315 303.964 337.138C304.281 336.951 304.533 336.69 304.72 336.354C304.906 336.009 305 335.598 305 335.122ZM309.882 330.32C309.537 330.32 309.247 330.213 309.014 329.998C308.79 329.774 308.678 329.499 308.678 329.172C308.678 328.845 308.79 328.575 309.014 328.36C309.247 328.136 309.537 328.024 309.882 328.024C310.227 328.024 310.512 328.136 310.736 328.36C310.969 328.575 311.086 328.845 311.086 329.172C311.086 329.499 310.969 329.774 310.736 329.998C310.512 330.213 310.227 330.32 309.882 330.32ZM310.848 331.244V339H308.888V331.244H310.848ZM314.744 328.64V339H312.784V328.64H314.744ZM323.891 334.954C323.891 335.234 323.872 335.486 323.835 335.71H318.165C318.212 336.27 318.408 336.709 318.753 337.026C319.098 337.343 319.523 337.502 320.027 337.502C320.755 337.502 321.273 337.189 321.581 336.564H323.695C323.471 337.311 323.042 337.927 322.407 338.412C321.772 338.888 320.993 339.126 320.069 339.126C319.322 339.126 318.65 338.963 318.053 338.636C317.465 338.3 317.003 337.829 316.667 337.222C316.34 336.615 316.177 335.915 316.177 335.122C316.177 334.319 316.34 333.615 316.667 333.008C316.994 332.401 317.451 331.935 318.039 331.608C318.627 331.281 319.304 331.118 320.069 331.118C320.806 331.118 321.464 331.277 322.043 331.594C322.631 331.911 323.084 332.364 323.401 332.952C323.728 333.531 323.891 334.198 323.891 334.954ZM321.861 334.394C321.852 333.89 321.67 333.489 321.315 333.19C320.96 332.882 320.526 332.728 320.013 332.728C319.528 332.728 319.117 332.877 318.781 333.176C318.454 333.465 318.254 333.871 318.179 334.394H321.861ZM332.031 339.098C331.35 339.098 330.734 338.981 330.183 338.748C329.642 338.515 329.213 338.179 328.895 337.74C328.578 337.301 328.415 336.783 328.405 336.186H330.505C330.533 336.587 330.673 336.905 330.925 337.138C331.187 337.371 331.541 337.488 331.989 337.488C332.447 337.488 332.806 337.381 333.067 337.166C333.329 336.942 333.459 336.653 333.459 336.298C333.459 336.009 333.371 335.771 333.193 335.584C333.016 335.397 332.792 335.253 332.521 335.15C332.26 335.038 331.896 334.917 331.429 334.786C330.795 334.599 330.277 334.417 329.875 334.24C329.483 334.053 329.143 333.778 328.853 333.414C328.573 333.041 328.433 332.546 328.433 331.93C328.433 331.351 328.578 330.847 328.867 330.418C329.157 329.989 329.563 329.662 330.085 329.438C330.608 329.205 331.205 329.088 331.877 329.088C332.885 329.088 333.702 329.335 334.327 329.83C334.962 330.315 335.312 330.997 335.377 331.874H333.221C333.203 331.538 333.058 331.263 332.787 331.048C332.526 330.824 332.176 330.712 331.737 330.712C331.355 330.712 331.047 330.81 330.813 331.006C330.589 331.202 330.477 331.487 330.477 331.86C330.477 332.121 330.561 332.341 330.729 332.518C330.907 332.686 331.121 332.826 331.373 332.938C331.635 333.041 331.999 333.162 332.465 333.302C333.1 333.489 333.618 333.675 334.019 333.862C334.421 334.049 334.766 334.329 335.055 334.702C335.345 335.075 335.489 335.565 335.489 336.172C335.489 336.695 335.354 337.18 335.083 337.628C334.813 338.076 334.416 338.435 333.893 338.706C333.371 338.967 332.75 339.098 332.031 339.098ZM340.633 339.126C339.886 339.126 339.214 338.963 338.617 338.636C338.019 338.3 337.548 337.829 337.203 337.222C336.867 336.615 336.699 335.915 336.699 335.122C336.699 334.329 336.871 333.629 337.217 333.022C337.571 332.415 338.052 331.949 338.659 331.622C339.265 331.286 339.942 331.118 340.689 331.118C341.435 331.118 342.112 331.286 342.719 331.622C343.325 331.949 343.801 332.415 344.147 333.022C344.501 333.629 344.679 334.329 344.679 335.122C344.679 335.915 344.497 336.615 344.133 337.222C343.778 337.829 343.293 338.3 342.677 338.636C342.07 338.963 341.389 339.126 340.633 339.126ZM340.633 337.418C340.987 337.418 341.319 337.334 341.627 337.166C341.944 336.989 342.196 336.727 342.383 336.382C342.569 336.037 342.663 335.617 342.663 335.122C342.663 334.385 342.467 333.82 342.075 333.428C341.692 333.027 341.221 332.826 340.661 332.826C340.101 332.826 339.629 333.027 339.247 333.428C338.873 333.82 338.687 334.385 338.687 335.122C338.687 335.859 338.869 336.429 339.233 336.83C339.606 337.222 340.073 337.418 340.633 337.418ZM348.076 328.64V339H346.116V328.64H348.076ZM357.335 331.244V339H355.361V338.02C355.109 338.356 354.778 338.622 354.367 338.818C353.966 339.005 353.527 339.098 353.051 339.098C352.444 339.098 351.908 338.972 351.441 338.72C350.974 338.459 350.606 338.081 350.335 337.586C350.074 337.082 349.943 336.485 349.943 335.794V331.244H351.903V335.514C351.903 336.13 352.057 336.606 352.365 336.942C352.673 337.269 353.093 337.432 353.625 337.432C354.166 337.432 354.591 337.269 354.899 336.942C355.207 336.606 355.361 336.13 355.361 335.514V331.244H357.335ZM361.551 332.854V336.606C361.551 336.867 361.611 337.059 361.733 337.18C361.863 337.292 362.078 337.348 362.377 337.348H363.287V339H362.055C360.403 339 359.577 338.197 359.577 336.592V332.854H358.653V331.244H359.577V329.326H361.551V331.244H363.287V332.854H361.551ZM365.69 330.32C365.345 330.32 365.056 330.213 364.822 329.998C364.598 329.774 364.486 329.499 364.486 329.172C364.486 328.845 364.598 328.575 364.822 328.36C365.056 328.136 365.345 328.024 365.69 328.024C366.036 328.024 366.32 328.136 366.544 328.36C366.778 328.575 366.894 328.845 366.894 329.172C366.894 329.499 366.778 329.774 366.544 329.998C366.32 330.213 366.036 330.32 365.69 330.32ZM366.656 331.244V339H364.696V331.244H366.656ZM372.037 339.126C371.29 339.126 370.618 338.963 370.021 338.636C369.424 338.3 368.952 337.829 368.607 337.222C368.271 336.615 368.103 335.915 368.103 335.122C368.103 334.329 368.276 333.629 368.621 333.022C368.976 332.415 369.456 331.949 370.063 331.622C370.67 331.286 371.346 331.118 372.093 331.118C372.84 331.118 373.516 331.286 374.123 331.622C374.73 331.949 375.206 332.415 375.551 333.022C375.906 333.629 376.083 334.329 376.083 335.122C376.083 335.915 375.901 336.615 375.537 337.222C375.182 337.829 374.697 338.3 374.081 338.636C373.474 338.963 372.793 339.126 372.037 339.126ZM372.037 337.418C372.392 337.418 372.723 337.334 373.031 337.166C373.348 336.989 373.6 336.727 373.787 336.382C373.974 336.037 374.067 335.617 374.067 335.122C374.067 334.385 373.871 333.82 373.479 333.428C373.096 333.027 372.625 332.826 372.065 332.826C371.505 332.826 371.034 333.027 370.651 333.428C370.278 333.82 370.091 334.385 370.091 335.122C370.091 335.859 370.273 336.429 370.637 336.83C371.01 337.222 371.477 337.418 372.037 337.418ZM381.819 331.132C382.743 331.132 383.489 331.426 384.059 332.014C384.628 332.593 384.913 333.405 384.913 334.45V339H382.953V334.716C382.953 334.1 382.799 333.629 382.491 333.302C382.183 332.966 381.763 332.798 381.231 332.798C380.689 332.798 380.26 332.966 379.943 333.302C379.635 333.629 379.481 334.1 379.481 334.716V339H377.521V331.244H379.481V332.21C379.742 331.874 380.073 331.613 380.475 331.426C380.885 331.23 381.333 331.132 381.819 331.132ZM389.745 339.126C389.11 339.126 388.541 339.014 388.037 338.79C387.533 338.557 387.131 338.244 386.833 337.852C386.543 337.46 386.385 337.026 386.357 336.55H388.331C388.368 336.849 388.513 337.096 388.765 337.292C389.026 337.488 389.348 337.586 389.731 337.586C390.104 337.586 390.393 337.511 390.599 337.362C390.813 337.213 390.921 337.021 390.921 336.788C390.921 336.536 390.79 336.349 390.529 336.228C390.277 336.097 389.871 335.957 389.311 335.808C388.732 335.668 388.256 335.523 387.883 335.374C387.519 335.225 387.201 334.996 386.931 334.688C386.669 334.38 386.539 333.965 386.539 333.442C386.539 333.013 386.66 332.621 386.903 332.266C387.155 331.911 387.509 331.631 387.967 331.426C388.433 331.221 388.979 331.118 389.605 331.118C390.529 331.118 391.266 331.351 391.817 331.818C392.367 332.275 392.671 332.896 392.727 333.68H390.851C390.823 333.372 390.692 333.129 390.459 332.952C390.235 332.765 389.931 332.672 389.549 332.672C389.194 332.672 388.919 332.737 388.723 332.868C388.536 332.999 388.443 333.181 388.443 333.414C388.443 333.675 388.573 333.876 388.835 334.016C389.096 334.147 389.502 334.282 390.053 334.422C390.613 334.562 391.075 334.707 391.439 334.856C391.803 335.005 392.115 335.239 392.377 335.556C392.647 335.864 392.787 336.275 392.797 336.788C392.797 337.236 392.671 337.637 392.419 337.992C392.176 338.347 391.821 338.627 391.355 338.832C390.897 339.028 390.361 339.126 389.745 339.126Z"
                        fill="#4F4F4F" />
                    <path
                        d="M61.992 507.242V514.452C61.992 515.255 61.7447 515.899 61.25 516.384C60.7553 516.86 60.102 517.098 59.29 517.098C58.4687 517.098 57.8107 516.855 57.316 516.37C56.8213 515.875 56.574 515.203 56.574 514.354H57.848C57.8573 514.83 57.9787 515.217 58.212 515.516C58.4547 515.815 58.814 515.964 59.29 515.964C59.766 515.964 60.1207 515.824 60.354 515.544C60.5873 515.255 60.704 514.891 60.704 514.452V507.242H61.992ZM71.3058 509.328V517H70.0318V515.866C69.7892 516.258 69.4485 516.566 69.0098 516.79C68.5805 517.005 68.1045 517.112 67.5818 517.112C66.9845 517.112 66.4478 516.991 65.9718 516.748C65.4958 516.496 65.1178 516.123 64.8378 515.628C64.5672 515.133 64.4318 514.531 64.4318 513.822V509.328H65.6918V513.654C65.6918 514.41 65.8832 514.993 66.2658 515.404C66.6485 515.805 67.1712 516.006 67.8338 516.006C68.5152 516.006 69.0518 515.796 69.4438 515.376C69.8358 514.956 70.0318 514.345 70.0318 513.542V509.328H71.3058ZM77.1949 509.188C78.1282 509.188 78.8842 509.473 79.4629 510.042C80.0416 510.602 80.3309 511.414 80.3309 512.478V517H79.0709V512.66C79.0709 511.895 78.8796 511.311 78.4969 510.91C78.1142 510.499 77.5916 510.294 76.9289 510.294C76.2569 510.294 75.7202 510.504 75.3189 510.924C74.9269 511.344 74.7309 511.955 74.7309 512.758V517H73.4569V509.328H74.7309V510.42C74.9829 510.028 75.3236 509.725 75.7529 509.51C76.1916 509.295 76.6722 509.188 77.1949 509.188ZM89.412 512.87C89.412 513.113 89.398 513.369 89.37 513.64H83.238C83.2847 514.396 83.5413 514.989 84.008 515.418C84.484 515.838 85.058 516.048 85.73 516.048C86.2807 516.048 86.738 515.922 87.102 515.67C87.4753 515.409 87.7367 515.063 87.886 514.634H89.258C89.0527 515.371 88.642 515.973 88.026 516.44C87.41 516.897 86.6447 517.126 85.73 517.126C85.002 517.126 84.3487 516.963 83.77 516.636C83.2007 516.309 82.7527 515.847 82.426 515.25C82.0993 514.643 81.936 513.943 81.936 513.15C81.936 512.357 82.0947 511.661 82.412 511.064C82.7293 510.467 83.1727 510.009 83.742 509.692C84.3207 509.365 84.9833 509.202 85.73 509.202C86.458 509.202 87.102 509.361 87.662 509.678C88.222 509.995 88.6513 510.434 88.95 510.994C89.258 511.545 89.412 512.17 89.412 512.87ZM88.096 512.604C88.096 512.119 87.9887 511.703 87.774 511.358C87.5593 511.003 87.2653 510.737 86.892 510.56C86.528 510.373 86.122 510.28 85.674 510.28C85.03 510.28 84.4793 510.485 84.022 510.896C83.574 511.307 83.3173 511.876 83.252 512.604H88.096ZM94.462 515.978C95.6474 515.026 96.576 514.247 97.248 513.64C97.92 513.024 98.4847 512.385 98.942 511.722C99.4087 511.05 99.642 510.392 99.642 509.748C99.642 509.141 99.4927 508.665 99.194 508.32C98.9047 507.965 98.4334 507.788 97.78 507.788C97.1454 507.788 96.6507 507.989 96.296 508.39C95.9507 508.782 95.764 509.309 95.736 509.972H94.504C94.5414 508.927 94.8587 508.119 95.456 507.55C96.0534 506.981 96.8234 506.696 97.766 506.696C98.7274 506.696 99.488 506.962 100.048 507.494C100.617 508.026 100.902 508.759 100.902 509.692C100.902 510.467 100.669 511.223 100.202 511.96C99.7447 512.688 99.222 513.332 98.634 513.892C98.046 514.443 97.2947 515.087 96.38 515.824H101.196V516.888H94.462V515.978ZM102.669 511.834C102.669 510.229 102.93 508.978 103.453 508.082C103.975 507.177 104.89 506.724 106.197 506.724C107.494 506.724 108.404 507.177 108.927 508.082C109.449 508.978 109.711 510.229 109.711 511.834C109.711 513.467 109.449 514.737 108.927 515.642C108.404 516.547 107.494 517 106.197 517C104.89 517 103.975 516.547 103.453 515.642C102.93 514.737 102.669 513.467 102.669 511.834ZM108.451 511.834C108.451 511.022 108.395 510.336 108.283 509.776C108.18 509.207 107.961 508.749 107.625 508.404C107.298 508.059 106.822 507.886 106.197 507.886C105.562 507.886 105.077 508.059 104.741 508.404C104.414 508.749 104.195 509.207 104.083 509.776C103.98 510.336 103.929 511.022 103.929 511.834C103.929 512.674 103.98 513.379 104.083 513.948C104.195 514.517 104.414 514.975 104.741 515.32C105.077 515.665 105.562 515.838 106.197 515.838C106.822 515.838 107.298 515.665 107.625 515.32C107.961 514.975 108.18 514.517 108.283 513.948C108.395 513.379 108.451 512.674 108.451 511.834ZM111.124 508.04V506.878H113.756V517H112.468V508.04H111.124ZM117.582 514.284C117.676 514.816 117.89 515.227 118.226 515.516C118.572 515.805 119.034 515.95 119.612 515.95C120.387 515.95 120.956 515.647 121.32 515.04C121.694 514.433 121.871 513.411 121.852 511.974C121.656 512.394 121.33 512.725 120.872 512.968C120.415 513.201 119.906 513.318 119.346 513.318C118.721 513.318 118.161 513.192 117.666 512.94C117.181 512.679 116.798 512.301 116.518 511.806C116.238 511.311 116.098 510.714 116.098 510.014C116.098 509.015 116.388 508.213 116.966 507.606C117.545 506.99 118.366 506.682 119.43 506.682C120.737 506.682 121.652 507.107 122.174 507.956C122.706 508.805 122.972 510.07 122.972 511.75C122.972 512.926 122.865 513.897 122.65 514.662C122.445 515.427 122.09 516.011 121.586 516.412C121.092 516.813 120.41 517.014 119.542 517.014C118.59 517.014 117.848 516.757 117.316 516.244C116.784 515.731 116.481 515.077 116.406 514.284H117.582ZM119.556 512.24C120.182 512.24 120.695 512.049 121.096 511.666C121.498 511.274 121.698 510.747 121.698 510.084C121.698 509.384 121.502 508.819 121.11 508.39C120.718 507.961 120.168 507.746 119.458 507.746C118.805 507.746 118.282 507.951 117.89 508.362C117.508 508.773 117.316 509.314 117.316 509.986C117.316 510.667 117.508 511.213 117.89 511.624C118.273 512.035 118.828 512.24 119.556 512.24ZM134.025 511.33V512.408H128.439V511.33H134.025ZM145.916 514.83H141.66L140.876 517H139.532L143.06 507.298H144.53L148.044 517H146.7L145.916 514.83ZM145.552 513.794L143.788 508.866L142.024 513.794H145.552ZM156.386 509.328V517H155.112V515.866C154.869 516.258 154.529 516.566 154.09 516.79C153.661 517.005 153.185 517.112 152.662 517.112C152.065 517.112 151.528 516.991 151.052 516.748C150.576 516.496 150.198 516.123 149.918 515.628C149.647 515.133 149.512 514.531 149.512 513.822V509.328H150.772V513.654C150.772 514.41 150.963 514.993 151.346 515.404C151.729 515.805 152.251 516.006 152.914 516.006C153.595 516.006 154.132 515.796 154.524 515.376C154.916 514.956 155.112 514.345 155.112 513.542V509.328H156.386ZM161.701 509.202C162.364 509.202 162.942 509.347 163.437 509.636C163.941 509.925 164.314 510.289 164.557 510.728V509.328H165.845V517.168C165.845 517.868 165.696 518.489 165.397 519.03C165.098 519.581 164.669 520.01 164.109 520.318C163.558 520.626 162.914 520.78 162.177 520.78C161.169 520.78 160.329 520.542 159.657 520.066C158.985 519.59 158.588 518.941 158.467 518.12H159.727C159.867 518.587 160.156 518.96 160.595 519.24C161.034 519.529 161.561 519.674 162.177 519.674C162.877 519.674 163.446 519.455 163.885 519.016C164.333 518.577 164.557 517.961 164.557 517.168V515.558C164.305 516.006 163.932 516.379 163.437 516.678C162.942 516.977 162.364 517.126 161.701 517.126C161.02 517.126 160.399 516.958 159.839 516.622C159.288 516.286 158.854 515.815 158.537 515.208C158.22 514.601 158.061 513.911 158.061 513.136C158.061 512.352 158.22 511.666 158.537 511.078C158.854 510.481 159.288 510.019 159.839 509.692C160.399 509.365 161.02 509.202 161.701 509.202ZM164.557 513.15C164.557 512.571 164.44 512.067 164.207 511.638C163.974 511.209 163.656 510.882 163.255 510.658C162.863 510.425 162.429 510.308 161.953 510.308C161.477 510.308 161.043 510.42 160.651 510.644C160.259 510.868 159.946 511.195 159.713 511.624C159.48 512.053 159.363 512.557 159.363 513.136C159.363 513.724 159.48 514.237 159.713 514.676C159.946 515.105 160.259 515.437 160.651 515.67C161.043 515.894 161.477 516.006 161.953 516.006C162.429 516.006 162.863 515.894 163.255 515.67C163.656 515.437 163.974 515.105 164.207 514.676C164.44 514.237 164.557 513.729 164.557 513.15ZM171.366 515.978C172.552 515.026 173.48 514.247 174.152 513.64C174.824 513.024 175.389 512.385 175.846 511.722C176.313 511.05 176.546 510.392 176.546 509.748C176.546 509.141 176.397 508.665 176.098 508.32C175.809 507.965 175.338 507.788 174.684 507.788C174.05 507.788 173.555 507.989 173.2 508.39C172.855 508.782 172.668 509.309 172.64 509.972H171.408C171.446 508.927 171.763 508.119 172.36 507.55C172.958 506.981 173.728 506.696 174.67 506.696C175.632 506.696 176.392 506.962 176.952 507.494C177.522 508.026 177.806 508.759 177.806 509.692C177.806 510.467 177.573 511.223 177.106 511.96C176.649 512.688 176.126 513.332 175.538 513.892C174.95 514.443 174.199 515.087 173.284 515.824H178.1V516.888H171.366V515.978ZM179.573 511.834C179.573 510.229 179.834 508.978 180.357 508.082C180.88 507.177 181.794 506.724 183.101 506.724C184.398 506.724 185.308 507.177 185.831 508.082C186.354 508.978 186.615 510.229 186.615 511.834C186.615 513.467 186.354 514.737 185.831 515.642C185.308 516.547 184.398 517 183.101 517C181.794 517 180.88 516.547 180.357 515.642C179.834 514.737 179.573 513.467 179.573 511.834ZM185.355 511.834C185.355 511.022 185.299 510.336 185.187 509.776C185.084 509.207 184.865 508.749 184.529 508.404C184.202 508.059 183.726 507.886 183.101 507.886C182.466 507.886 181.981 508.059 181.645 508.404C181.318 508.749 181.099 509.207 180.987 509.776C180.884 510.336 180.833 511.022 180.833 511.834C180.833 512.674 180.884 513.379 180.987 513.948C181.099 514.517 181.318 514.975 181.645 515.32C181.981 515.665 182.466 515.838 183.101 515.838C183.726 515.838 184.202 515.665 184.529 515.32C184.865 514.975 185.084 514.517 185.187 513.948C185.299 513.379 185.355 512.674 185.355 511.834ZM188.028 508.04V506.878H190.66V517H189.372V508.04H188.028ZM199.078 507.872L195.186 517H193.898L197.846 507.998H192.442V506.906H199.078V507.872Z"
                        fill="black" />
                    <path
                        d="M229.38 492.96V495.7H223.66V498.66H227.94V501.32H223.66V507H220.24V492.96H229.38ZM234.598 497.7C234.998 497.087 235.498 496.607 236.098 496.26C236.698 495.9 237.364 495.72 238.098 495.72V499.34H237.158C236.304 499.34 235.664 499.527 235.238 499.9C234.811 500.26 234.598 500.9 234.598 501.82V507H231.178V495.84H234.598V497.7ZM244.812 507.16C243.719 507.16 242.732 506.927 241.852 506.46C240.986 505.993 240.299 505.327 239.792 504.46C239.299 503.593 239.052 502.58 239.052 501.42C239.052 500.273 239.306 499.267 239.812 498.4C240.319 497.52 241.012 496.847 241.892 496.38C242.772 495.913 243.759 495.68 244.852 495.68C245.946 495.68 246.932 495.913 247.812 496.38C248.692 496.847 249.386 497.52 249.892 498.4C250.399 499.267 250.652 500.273 250.652 501.42C250.652 502.567 250.392 503.58 249.872 504.46C249.366 505.327 248.666 505.993 247.772 506.46C246.892 506.927 245.906 507.16 244.812 507.16ZM244.812 504.2C245.466 504.2 246.019 503.96 246.472 503.48C246.939 503 247.172 502.313 247.172 501.42C247.172 500.527 246.946 499.84 246.492 499.36C246.052 498.88 245.506 498.64 244.852 498.64C244.186 498.64 243.632 498.88 243.192 499.36C242.752 499.827 242.532 500.513 242.532 501.42C242.532 502.313 242.746 503 243.172 503.48C243.612 503.96 244.159 504.2 244.812 504.2ZM259.267 495.72C260.573 495.72 261.613 496.147 262.387 497C263.173 497.84 263.567 499 263.567 500.48V507H260.167V500.94C260.167 500.193 259.973 499.613 259.587 499.2C259.2 498.787 258.68 498.58 258.027 498.58C257.373 498.58 256.853 498.787 256.467 499.2C256.08 499.613 255.887 500.193 255.887 500.94V507H252.467V495.84H255.887V497.32C256.233 496.827 256.7 496.44 257.287 496.16C257.873 495.867 258.533 495.72 259.267 495.72ZM272.163 504.1V507H270.423C269.183 507 268.216 506.7 267.523 506.1C266.83 505.487 266.483 504.493 266.483 503.12V498.68H265.123V495.84H266.483V493.12H269.903V495.84H272.143V498.68H269.903V503.16C269.903 503.493 269.983 503.733 270.143 503.88C270.303 504.027 270.57 504.1 270.943 504.1H272.163ZM284.588 501.24C284.588 501.56 284.568 501.893 284.528 502.24H276.788C276.841 502.933 277.061 503.467 277.448 503.84C277.848 504.2 278.335 504.38 278.908 504.38C279.761 504.38 280.355 504.02 280.688 503.3H284.328C284.141 504.033 283.801 504.693 283.308 505.28C282.828 505.867 282.221 506.327 281.488 506.66C280.755 506.993 279.935 507.16 279.028 507.16C277.935 507.16 276.961 506.927 276.108 506.46C275.255 505.993 274.588 505.327 274.108 504.46C273.628 503.593 273.388 502.58 273.388 501.42C273.388 500.26 273.621 499.247 274.088 498.38C274.568 497.513 275.235 496.847 276.088 496.38C276.941 495.913 277.921 495.68 279.028 495.68C280.108 495.68 281.068 495.907 281.908 496.36C282.748 496.813 283.401 497.46 283.868 498.3C284.348 499.14 284.588 500.12 284.588 501.24ZM281.088 500.34C281.088 499.753 280.888 499.287 280.488 498.94C280.088 498.593 279.588 498.42 278.988 498.42C278.415 498.42 277.928 498.587 277.528 498.92C277.141 499.253 276.901 499.727 276.808 500.34H281.088ZM293.192 495.72C294.499 495.72 295.539 496.147 296.312 497C297.099 497.84 297.492 499 297.492 500.48V507H294.092V500.94C294.092 500.193 293.899 499.613 293.512 499.2C293.126 498.787 292.606 498.58 291.952 498.58C291.299 498.58 290.779 498.787 290.392 499.2C290.006 499.613 289.812 500.193 289.812 500.94V507H286.392V495.84H289.812V497.32C290.159 496.827 290.626 496.44 291.212 496.16C291.799 495.867 292.459 495.72 293.192 495.72ZM299.189 501.4C299.189 500.253 299.402 499.247 299.829 498.38C300.269 497.513 300.862 496.847 301.609 496.38C302.356 495.913 303.189 495.68 304.109 495.68C304.842 495.68 305.509 495.833 306.109 496.14C306.722 496.447 307.202 496.86 307.549 497.38V492.2H310.969V507H307.549V505.4C307.229 505.933 306.769 506.36 306.169 506.68C305.582 507 304.896 507.16 304.109 507.16C303.189 507.16 302.356 506.927 301.609 506.46C300.862 505.98 300.269 505.307 299.829 504.44C299.402 503.56 299.189 502.547 299.189 501.4ZM307.549 501.42C307.549 500.567 307.309 499.893 306.829 499.4C306.362 498.907 305.789 498.66 305.109 498.66C304.429 498.66 303.849 498.907 303.369 499.4C302.902 499.88 302.669 500.547 302.669 501.4C302.669 502.253 302.902 502.933 303.369 503.44C303.849 503.933 304.429 504.18 305.109 504.18C305.789 504.18 306.362 503.933 306.829 503.44C307.309 502.947 307.549 502.273 307.549 501.42ZM322.941 492.96C324.421 492.96 325.715 493.253 326.821 493.84C327.928 494.427 328.781 495.253 329.381 496.32C329.995 497.373 330.301 498.593 330.301 499.98C330.301 501.353 329.995 502.573 329.381 503.64C328.781 504.707 327.921 505.533 326.801 506.12C325.695 506.707 324.408 507 322.941 507H317.681V492.96H322.941ZM322.721 504.04C324.015 504.04 325.021 503.687 325.741 502.98C326.461 502.273 326.821 501.273 326.821 499.98C326.821 498.687 326.461 497.68 325.741 496.96C325.021 496.24 324.015 495.88 322.721 495.88H321.101V504.04H322.721ZM342.733 501.24C342.733 501.56 342.713 501.893 342.673 502.24H334.933C334.986 502.933 335.206 503.467 335.593 503.84C335.993 504.2 336.479 504.38 337.053 504.38C337.906 504.38 338.499 504.02 338.833 503.3H342.473C342.286 504.033 341.946 504.693 341.453 505.28C340.973 505.867 340.366 506.327 339.633 506.66C338.899 506.993 338.079 507.16 337.173 507.16C336.079 507.16 335.106 506.927 334.253 506.46C333.399 505.993 332.733 505.327 332.253 504.46C331.773 503.593 331.533 502.58 331.533 501.42C331.533 500.26 331.766 499.247 332.233 498.38C332.713 497.513 333.379 496.847 334.233 496.38C335.086 495.913 336.066 495.68 337.173 495.68C338.253 495.68 339.213 495.907 340.053 496.36C340.893 496.813 341.546 497.46 342.013 498.3C342.493 499.14 342.733 500.12 342.733 501.24ZM339.233 500.34C339.233 499.753 339.033 499.287 338.633 498.94C338.233 498.593 337.733 498.42 337.133 498.42C336.559 498.42 336.073 498.587 335.673 498.92C335.286 499.253 335.046 499.727 334.953 500.34H339.233ZM349.557 503.8L351.977 495.84H355.617L351.657 507H347.437L343.477 495.84H347.137L349.557 503.8ZM367.576 501.24C367.576 501.56 367.556 501.893 367.516 502.24H359.776C359.83 502.933 360.05 503.467 360.436 503.84C360.836 504.2 361.323 504.38 361.896 504.38C362.75 504.38 363.343 504.02 363.676 503.3H367.316C367.13 504.033 366.79 504.693 366.296 505.28C365.816 505.867 365.21 506.327 364.476 506.66C363.743 506.993 362.923 507.16 362.016 507.16C360.923 507.16 359.95 506.927 359.096 506.46C358.243 505.993 357.576 505.327 357.096 504.46C356.616 503.593 356.376 502.58 356.376 501.42C356.376 500.26 356.61 499.247 357.076 498.38C357.556 497.513 358.223 496.847 359.076 496.38C359.93 495.913 360.91 495.68 362.016 495.68C363.096 495.68 364.056 495.907 364.896 496.36C365.736 496.813 366.39 497.46 366.856 498.3C367.336 499.14 367.576 500.12 367.576 501.24ZM364.076 500.34C364.076 499.753 363.876 499.287 363.476 498.94C363.076 498.593 362.576 498.42 361.976 498.42C361.403 498.42 360.916 498.587 360.516 498.92C360.13 499.253 359.89 499.727 359.796 500.34H364.076ZM372.801 492.2V507H369.381V492.2H372.801ZM380.359 507.16C379.266 507.16 378.279 506.927 377.399 506.46C376.532 505.993 375.846 505.327 375.339 504.46C374.846 503.593 374.599 502.58 374.599 501.42C374.599 500.273 374.852 499.267 375.359 498.4C375.866 497.52 376.559 496.847 377.439 496.38C378.319 495.913 379.306 495.68 380.399 495.68C381.492 495.68 382.479 495.913 383.359 496.38C384.239 496.847 384.932 497.52 385.439 498.4C385.946 499.267 386.199 500.273 386.199 501.42C386.199 502.567 385.939 503.58 385.419 504.46C384.912 505.327 384.212 505.993 383.319 506.46C382.439 506.927 381.452 507.16 380.359 507.16ZM380.359 504.2C381.012 504.2 381.566 503.96 382.019 503.48C382.486 503 382.719 502.313 382.719 501.42C382.719 500.527 382.492 499.84 382.039 499.36C381.599 498.88 381.052 498.64 380.399 498.64C379.732 498.64 379.179 498.88 378.739 499.36C378.299 499.827 378.079 500.513 378.079 501.42C378.079 502.313 378.292 503 378.719 503.48C379.159 503.96 379.706 504.2 380.359 504.2ZM391.433 497.42C391.767 496.9 392.227 496.48 392.813 496.16C393.4 495.84 394.087 495.68 394.873 495.68C395.793 495.68 396.627 495.913 397.373 496.38C398.12 496.847 398.707 497.513 399.133 498.38C399.573 499.247 399.793 500.253 399.793 501.4C399.793 502.547 399.573 503.56 399.133 504.44C398.707 505.307 398.12 505.98 397.373 506.46C396.627 506.927 395.793 507.16 394.873 507.16C394.1 507.16 393.413 507 392.813 506.68C392.227 506.36 391.767 505.947 391.433 505.44V512.32H388.013V495.84H391.433V497.42ZM396.313 501.4C396.313 500.547 396.073 499.88 395.593 499.4C395.127 498.907 394.547 498.66 393.853 498.66C393.173 498.66 392.593 498.907 392.113 499.4C391.647 499.893 391.413 500.567 391.413 501.42C391.413 502.273 391.647 502.947 392.113 503.44C392.593 503.933 393.173 504.18 393.853 504.18C394.533 504.18 395.113 503.933 395.593 503.44C396.073 502.933 396.313 502.253 396.313 501.4ZM412.108 501.24C412.108 501.56 412.088 501.893 412.048 502.24H404.308C404.361 502.933 404.581 503.467 404.968 503.84C405.368 504.2 405.854 504.38 406.428 504.38C407.281 504.38 407.874 504.02 408.208 503.3H411.848C411.661 504.033 411.321 504.693 410.828 505.28C410.348 505.867 409.741 506.327 409.008 506.66C408.274 506.993 407.454 507.16 406.548 507.16C405.454 507.16 404.481 506.927 403.628 506.46C402.774 505.993 402.108 505.327 401.628 504.46C401.148 503.593 400.908 502.58 400.908 501.42C400.908 500.26 401.141 499.247 401.608 498.38C402.088 497.513 402.754 496.847 403.608 496.38C404.461 495.913 405.441 495.68 406.548 495.68C407.628 495.68 408.588 495.907 409.428 496.36C410.268 496.813 410.921 497.46 411.388 498.3C411.868 499.14 412.108 500.12 412.108 501.24ZM408.608 500.34C408.608 499.753 408.408 499.287 408.008 498.94C407.608 498.593 407.108 498.42 406.508 498.42C405.934 498.42 405.448 498.587 405.048 498.92C404.661 499.253 404.421 499.727 404.328 500.34H408.608ZM417.332 497.7C417.732 497.087 418.232 496.607 418.832 496.26C419.432 495.9 420.099 495.72 420.832 495.72V499.34H419.892C419.039 499.34 418.399 499.527 417.972 499.9C417.545 500.26 417.332 500.9 417.332 501.82V507H413.912V495.84H417.332V497.7Z"
                        fill="black" />
                    <path
                        d="M226.616 524.228V525.81H224.012V534H222.052V525.81H219.448V524.228H226.616ZM230.006 527.448C230.258 527.037 230.585 526.715 230.986 526.482C231.397 526.249 231.863 526.132 232.386 526.132V528.19H231.868C231.252 528.19 230.785 528.335 230.468 528.624C230.16 528.913 230.006 529.417 230.006 530.136V534H228.046V526.244H230.006V527.448ZM233.202 530.094C233.202 529.31 233.356 528.615 233.664 528.008C233.982 527.401 234.406 526.935 234.938 526.608C235.48 526.281 236.082 526.118 236.744 526.118C237.323 526.118 237.827 526.235 238.256 526.468C238.695 526.701 239.045 526.995 239.306 527.35V526.244H241.28V534H239.306V532.866C239.054 533.23 238.704 533.533 238.256 533.776C237.818 534.009 237.309 534.126 236.73 534.126C236.077 534.126 235.48 533.958 234.938 533.622C234.406 533.286 233.982 532.815 233.664 532.208C233.356 531.592 233.202 530.887 233.202 530.094ZM239.306 530.122C239.306 529.646 239.213 529.24 239.026 528.904C238.84 528.559 238.588 528.297 238.27 528.12C237.953 527.933 237.612 527.84 237.248 527.84C236.884 527.84 236.548 527.929 236.24 528.106C235.932 528.283 235.68 528.545 235.484 528.89C235.298 529.226 235.204 529.627 235.204 530.094C235.204 530.561 235.298 530.971 235.484 531.326C235.68 531.671 235.932 531.937 236.24 532.124C236.558 532.311 236.894 532.404 237.248 532.404C237.612 532.404 237.953 532.315 238.27 532.138C238.588 531.951 238.84 531.69 239.026 531.354C239.213 531.009 239.306 530.598 239.306 530.122ZM247.493 526.132C248.417 526.132 249.163 526.426 249.733 527.014C250.302 527.593 250.587 528.405 250.587 529.45V534H248.627V529.716C248.627 529.1 248.473 528.629 248.165 528.302C247.857 527.966 247.437 527.798 246.905 527.798C246.363 527.798 245.934 527.966 245.617 528.302C245.309 528.629 245.155 529.1 245.155 529.716V534H243.195V526.244H245.155V527.21C245.416 526.874 245.747 526.613 246.149 526.426C246.559 526.23 247.007 526.132 247.493 526.132ZM255.418 534.126C254.784 534.126 254.214 534.014 253.71 533.79C253.206 533.557 252.805 533.244 252.506 532.852C252.217 532.46 252.058 532.026 252.03 531.55H254.004C254.042 531.849 254.186 532.096 254.438 532.292C254.7 532.488 255.022 532.586 255.404 532.586C255.778 532.586 256.067 532.511 256.272 532.362C256.487 532.213 256.594 532.021 256.594 531.788C256.594 531.536 256.464 531.349 256.202 531.228C255.95 531.097 255.544 530.957 254.984 530.808C254.406 530.668 253.93 530.523 253.556 530.374C253.192 530.225 252.875 529.996 252.604 529.688C252.343 529.38 252.212 528.965 252.212 528.442C252.212 528.013 252.334 527.621 252.576 527.266C252.828 526.911 253.183 526.631 253.64 526.426C254.107 526.221 254.653 526.118 255.278 526.118C256.202 526.118 256.94 526.351 257.49 526.818C258.041 527.275 258.344 527.896 258.4 528.68H256.524C256.496 528.372 256.366 528.129 256.132 527.952C255.908 527.765 255.605 527.672 255.222 527.672C254.868 527.672 254.592 527.737 254.396 527.868C254.21 527.999 254.116 528.181 254.116 528.414C254.116 528.675 254.247 528.876 254.508 529.016C254.77 529.147 255.176 529.282 255.726 529.422C256.286 529.562 256.748 529.707 257.112 529.856C257.476 530.005 257.789 530.239 258.05 530.556C258.321 530.864 258.461 531.275 258.47 531.788C258.47 532.236 258.344 532.637 258.092 532.992C257.85 533.347 257.495 533.627 257.028 533.832C256.571 534.028 256.034 534.126 255.418 534.126ZM263.523 534.126C262.777 534.126 262.105 533.963 261.507 533.636C260.91 533.3 260.439 532.829 260.093 532.222C259.757 531.615 259.589 530.915 259.589 530.122C259.589 529.329 259.762 528.629 260.107 528.022C260.462 527.415 260.943 526.949 261.549 526.622C262.156 526.286 262.833 526.118 263.579 526.118C264.326 526.118 265.003 526.286 265.609 526.622C266.216 526.949 266.692 527.415 267.037 528.022C267.392 528.629 267.569 529.329 267.569 530.122C267.569 530.915 267.387 531.615 267.023 532.222C266.669 532.829 266.183 533.3 265.567 533.636C264.961 533.963 264.279 534.126 263.523 534.126ZM263.523 532.418C263.878 532.418 264.209 532.334 264.517 532.166C264.835 531.989 265.087 531.727 265.273 531.382C265.46 531.037 265.553 530.617 265.553 530.122C265.553 529.385 265.357 528.82 264.965 528.428C264.583 528.027 264.111 527.826 263.551 527.826C262.991 527.826 262.52 528.027 262.137 528.428C261.764 528.82 261.577 529.385 261.577 530.122C261.577 530.859 261.759 531.429 262.123 531.83C262.497 532.222 262.963 532.418 263.523 532.418ZM273.305 526.132C274.229 526.132 274.976 526.426 275.545 527.014C276.114 527.593 276.399 528.405 276.399 529.45V534H274.439V529.716C274.439 529.1 274.285 528.629 273.977 528.302C273.669 527.966 273.249 527.798 272.717 527.798C272.176 527.798 271.746 527.966 271.429 528.302C271.121 528.629 270.967 529.1 270.967 529.716V534H269.007V526.244H270.967V527.21C271.228 526.874 271.56 526.613 271.961 526.426C272.372 526.23 272.82 526.132 273.305 526.132ZM280.223 523.64V534H278.263V523.64H280.223ZM283.153 525.32C282.808 525.32 282.519 525.213 282.285 524.998C282.061 524.774 281.949 524.499 281.949 524.172C281.949 523.845 282.061 523.575 282.285 523.36C282.519 523.136 282.808 523.024 283.153 523.024C283.499 523.024 283.783 523.136 284.007 523.36C284.241 523.575 284.357 523.845 284.357 524.172C284.357 524.499 284.241 524.774 284.007 524.998C283.783 525.213 283.499 525.32 283.153 525.32ZM284.119 526.244V534H282.159V526.244H284.119ZM290.354 526.132C291.278 526.132 292.025 526.426 292.594 527.014C293.163 527.593 293.448 528.405 293.448 529.45V534H291.488V529.716C291.488 529.1 291.334 528.629 291.026 528.302C290.718 527.966 290.298 527.798 289.766 527.798C289.225 527.798 288.795 527.966 288.478 528.302C288.17 528.629 288.016 529.1 288.016 529.716V534H286.056V526.244H288.016V527.21C288.277 526.874 288.609 526.613 289.01 526.426C289.421 526.23 289.869 526.132 290.354 526.132ZM302.522 529.954C302.522 530.234 302.503 530.486 302.466 530.71H296.796C296.842 531.27 297.038 531.709 297.384 532.026C297.729 532.343 298.154 532.502 298.658 532.502C299.386 532.502 299.904 532.189 300.212 531.564H302.326C302.102 532.311 301.672 532.927 301.038 533.412C300.403 533.888 299.624 534.126 298.7 534.126C297.953 534.126 297.281 533.963 296.684 533.636C296.096 533.3 295.634 532.829 295.298 532.222C294.971 531.615 294.808 530.915 294.808 530.122C294.808 529.319 294.971 528.615 295.298 528.008C295.624 527.401 296.082 526.935 296.67 526.608C297.258 526.281 297.934 526.118 298.7 526.118C299.437 526.118 300.095 526.277 300.674 526.594C301.262 526.911 301.714 527.364 302.032 527.952C302.358 528.531 302.522 529.198 302.522 529.954ZM300.492 529.394C300.482 528.89 300.3 528.489 299.946 528.19C299.591 527.882 299.157 527.728 298.644 527.728C298.158 527.728 297.748 527.877 297.412 528.176C297.085 528.465 296.884 528.871 296.81 529.394H300.492ZM309.248 532.446H312.468V534H307.288V524.228H309.248V532.446ZM314.708 525.32C314.363 525.32 314.073 525.213 313.84 524.998C313.616 524.774 313.504 524.499 313.504 524.172C313.504 523.845 313.616 523.575 313.84 523.36C314.073 523.136 314.363 523.024 314.708 523.024C315.053 523.024 315.338 523.136 315.562 523.36C315.795 523.575 315.912 523.845 315.912 524.172C315.912 524.499 315.795 524.774 315.562 524.998C315.338 525.213 315.053 525.32 314.708 525.32ZM315.674 526.244V534H313.714V526.244H315.674ZM327.243 526.132C328.195 526.132 328.96 526.426 329.539 527.014C330.127 527.593 330.421 528.405 330.421 529.45V534H328.461V529.716C328.461 529.109 328.307 528.647 327.999 528.33C327.691 528.003 327.271 527.84 326.739 527.84C326.207 527.84 325.782 528.003 325.465 528.33C325.157 528.647 325.003 529.109 325.003 529.716V534H323.043V529.716C323.043 529.109 322.889 528.647 322.581 528.33C322.273 528.003 321.853 527.84 321.321 527.84C320.779 527.84 320.35 528.003 320.033 528.33C319.725 528.647 319.571 529.109 319.571 529.716V534H317.611V526.244H319.571V527.182C319.823 526.855 320.145 526.599 320.537 526.412C320.938 526.225 321.377 526.132 321.853 526.132C322.459 526.132 323.001 526.263 323.477 526.524C323.953 526.776 324.321 527.14 324.583 527.616C324.835 527.168 325.199 526.809 325.675 526.538C326.16 526.267 326.683 526.132 327.243 526.132ZM333.274 525.32C332.929 525.32 332.64 525.213 332.406 524.998C332.182 524.774 332.07 524.499 332.07 524.172C332.07 523.845 332.182 523.575 332.406 523.36C332.64 523.136 332.929 523.024 333.274 523.024C333.62 523.024 333.904 523.136 334.128 523.36C334.362 523.575 334.478 523.845 334.478 524.172C334.478 524.499 334.362 524.774 334.128 524.998C333.904 525.213 333.62 525.32 333.274 525.32ZM334.24 526.244V534H332.28V526.244H334.24ZM338.459 527.854V531.606C338.459 531.867 338.52 532.059 338.641 532.18C338.772 532.292 338.986 532.348 339.285 532.348H340.195V534H338.963C337.311 534 336.485 533.197 336.485 531.592V527.854H335.561V526.244H336.485V524.326H338.459V526.244H340.195V527.854H338.459ZM348.815 529.954C348.815 530.234 348.796 530.486 348.759 530.71H343.089C343.135 531.27 343.331 531.709 343.677 532.026C344.022 532.343 344.447 532.502 344.951 532.502C345.679 532.502 346.197 532.189 346.505 531.564H348.619C348.395 532.311 347.965 532.927 347.331 533.412C346.696 533.888 345.917 534.126 344.993 534.126C344.246 534.126 343.574 533.963 342.977 533.636C342.389 533.3 341.927 532.829 341.591 532.222C341.264 531.615 341.101 530.915 341.101 530.122C341.101 529.319 341.264 528.615 341.591 528.008C341.917 527.401 342.375 526.935 342.963 526.608C343.551 526.281 344.227 526.118 344.993 526.118C345.73 526.118 346.388 526.277 346.967 526.594C347.555 526.911 348.007 527.364 348.325 527.952C348.651 528.531 348.815 529.198 348.815 529.954ZM346.785 529.394C346.775 528.89 346.593 528.489 346.239 528.19C345.884 527.882 345.45 527.728 344.937 527.728C344.451 527.728 344.041 527.877 343.705 528.176C343.378 528.465 343.177 528.871 343.103 529.394H346.785ZM349.741 530.094C349.741 529.31 349.895 528.615 350.203 528.008C350.521 527.401 350.95 526.935 351.491 526.608C352.033 526.281 352.635 526.118 353.297 526.118C353.801 526.118 354.282 526.23 354.739 526.454C355.197 526.669 355.561 526.958 355.831 527.322V523.64H357.819V534H355.831V532.852C355.589 533.235 355.248 533.543 354.809 533.776C354.371 534.009 353.862 534.126 353.283 534.126C352.63 534.126 352.033 533.958 351.491 533.622C350.95 533.286 350.521 532.815 350.203 532.208C349.895 531.592 349.741 530.887 349.741 530.094ZM355.845 530.122C355.845 529.646 355.752 529.24 355.565 528.904C355.379 528.559 355.127 528.297 354.809 528.12C354.492 527.933 354.151 527.84 353.787 527.84C353.423 527.84 353.087 527.929 352.779 528.106C352.471 528.283 352.219 528.545 352.023 528.89C351.837 529.226 351.743 529.627 351.743 530.094C351.743 530.561 351.837 530.971 352.023 531.326C352.219 531.671 352.471 531.937 352.779 532.124C353.097 532.311 353.433 532.404 353.787 532.404C354.151 532.404 354.492 532.315 354.809 532.138C355.127 531.951 355.379 531.69 355.565 531.354C355.752 531.009 355.845 530.598 355.845 530.122Z"
                        fill="#4F4F4F" />
                </svg>